<?xml version="1.0" encoding="UTF-8"?> <svg xmlns="http://www.w3.org/2000/svg" width="408" height="315" viewBox="0 0 408 315" fill="none"><path d="M89.5079 232.465C89.5079 232.465 92.5264 232.25 97.5229 231.78C94.4567 232.234 91.74 232.481 89.5079 232.465Z" fill="#DFEAFE"></path><path d="M104.164 256.677C104.164 256.677 105.323 252.742 107.127 246.308C106.157 250.201 105.165 253.699 104.164 256.677Z" fill="#DFEAFE"></path><path d="M97.5865 251.332C97.5865 251.332 95.5053 246.481 92.0101 238.611C94.2264 243.255 96.1169 247.537 97.5865 251.332Z" fill="#DFEAFE"></path><path d="M109.692 110.594C134.786 135.071 148.56 160.85 145.025 164.521C141.617 168.052 102.766 156.635 75.9247 133.602C49.1234 110.602 43.5312 92.1728 55.2875 82.9416C69.4428 71.8212 84.4163 85.9444 109.692 110.594Z" fill="#E8E8FE"></path><path d="M89.8258 105.768C90.6201 101.239 93.9484 98.1785 92.7887 98.0217C91.6289 97.8732 88.0544 101.313 87.268 105.842C86.7437 108.845 86.696 111.518 87.0614 113.028C84.3368 110.371 81.7314 107.822 79.2848 105.455C79.8487 104.638 80.0156 101.322 80.6431 97.7495C81.3739 93.567 83.9317 90.6714 83.0817 90.5641C82.2318 90.4569 79.4754 93.7072 78.7446 97.8815C78.2521 100.711 78.133 103.211 78.3792 104.572C74.9397 101.247 71.8497 98.2857 69.2363 95.8768C69.5143 94.7714 69.6414 92.7008 70.0227 90.5146C70.5946 87.2396 72.9141 85.0039 72.1197 84.8967C71.3175 84.7894 68.8232 87.2973 68.2513 90.5806C67.9732 92.148 67.8779 93.5917 67.9335 94.6807C61.539 88.8812 58.6238 87.0333 61.69 92.346C62.5002 93.7485 63.6361 95.3324 65.05 97.073C63.8347 97.04 62.246 97.139 60.5223 97.3948C56.8603 97.9392 54.0801 100.191 54.1992 100.909C54.3263 101.619 56.7968 99.5232 60.4587 98.9787C62.6749 98.6487 64.772 98.5085 66.0668 98.294C68.3942 101.016 71.3254 104.069 74.6775 107.319C73.1047 107.162 70.4437 107.302 67.4649 107.748C62.7941 108.441 59.1798 110.941 59.3148 111.691C59.4499 112.45 62.667 110.132 67.3298 109.439C70.9997 108.895 74.4234 108.697 75.6625 108.268C77.99 110.495 80.4922 112.813 83.1294 115.181C81.3818 115.024 78.8082 115.14 75.9803 115.56C70.9203 116.311 67.0995 119.545 67.2822 120.576C67.4649 121.607 70.8567 118.604 75.9167 117.854C79.7296 117.284 83.3201 117.144 84.7817 116.674C87.2044 118.827 89.7225 121.013 92.2882 123.208C90.5725 122.968 88.11 123.026 85.4171 123.422C80.5001 124.156 76.9017 127.91 77.1162 129.164C77.3386 130.409 80.5319 126.912 85.4489 126.177C89.4127 125.592 93.1461 125.575 94.3297 124.94C97.2926 127.448 100.303 129.948 103.298 132.414C101.566 131.96 98.5715 131.936 95.2353 132.431C90.1594 133.19 86.4498 137.141 86.6801 138.453C86.9105 139.773 90.2071 136.085 95.2829 135.334C100.057 134.625 104.505 134.749 104.831 133.668C107.659 135.978 110.463 138.238 113.188 140.416C111.408 140.119 108.747 140.144 105.824 140.581C100.748 141.34 97.0384 145.292 97.2688 146.603C97.4992 147.923 100.796 144.236 105.872 143.485C110.248 142.833 114.355 142.883 115.253 142.058C117.747 144.038 120.154 145.935 122.45 147.734C121.044 147.437 117.882 147.552 114.268 148.088C109.454 148.806 105.721 151.314 105.856 152.073C105.991 152.832 109.311 150.497 114.125 149.788C118.613 149.119 122.752 148.946 123.188 148.311C125.992 150.497 128.598 152.518 130.941 154.317C129.98 154.028 127.518 153.78 124.69 154.069C121.067 154.432 118.232 155.546 118.271 155.884C118.311 156.231 121.179 155.323 124.793 154.952C128.145 154.614 130.973 154.853 131.338 154.622C132.443 155.472 133.491 156.272 134.468 157.014C133.475 156.214 132.458 155.364 131.418 154.498C131.569 153.937 131.18 151.561 131.33 148.732C131.505 145.481 132.331 142.866 131.95 142.858C131.561 142.842 130.512 145.448 130.338 148.699C130.21 151.108 130.6 153.187 130.965 154.119C128.701 152.213 126.342 150.167 123.919 148.014C124.42 146.942 124.61 143.708 125.222 140.243C125.977 135.937 128.55 132.942 127.7 132.827C126.85 132.719 124.078 136.077 123.323 140.383C122.831 143.18 122.696 145.663 122.894 147.098C120.789 145.217 118.653 143.262 116.476 141.258C117.731 141.051 117.541 137.034 118.295 132.703C119.09 128.157 123.173 125.179 121.703 124.99C120.225 124.8 115.841 128.149 115.046 132.695C114.506 135.772 114.594 138.519 115.158 140.037C112.377 137.455 109.573 134.806 106.761 132.134C107.873 131.68 107.722 127.786 108.453 123.612C109.248 119.066 113.331 116.088 111.861 115.899C110.384 115.709 105.999 119.058 105.204 123.604C104.696 126.491 104.744 129.098 105.212 130.657C102.496 128.067 99.7948 125.46 97.1417 122.886C97.8963 121.904 97.8487 118.505 98.4842 114.876C99.2547 110.479 103.139 107.583 101.741 107.401C100.343 107.22 96.1726 110.47 95.4021 114.876C94.9811 117.293 94.9414 119.504 95.2353 121.038C92.8522 118.72 90.5168 116.443 88.253 114.232C89.0791 113.539 89.1188 109.794 89.8258 105.768Z" fill="#DEDEFB"></path><path d="M102.662 256.644C102.662 256.644 99.6201 255.803 94.6475 254.516C97.6501 255.176 100.351 255.885 102.662 256.644Z" fill="#DFEAFE"></path><path d="M118.168 59.3478C129.805 95.3901 130.743 128.05 125.961 130.393C121.353 132.645 91.6686 104.473 77.8311 69.206C64.0253 33.9969 67.155 12.4326 81.7393 7.72208C99.2944 2.04639 106.451 23.0498 118.168 59.3478Z" fill="#EDEDF0"></path><path d="M124.356 127.803C124.356 127.803 122.616 124.14 119.86 118.134C121.409 121.789 122.918 125.047 124.356 127.803Z" fill="#DFEAFE"></path><path d="M102.543 45.9918C105.244 41.603 109.573 39.7964 108.604 39.1529C107.635 38.5095 102.925 40.6048 100.216 45.0019C98.4206 47.9139 97.2052 50.6858 96.8636 52.41C95.6006 48.4997 94.3932 44.7544 93.2493 41.2483C94.1152 40.6296 95.7277 37.2473 97.8566 33.7825C100.351 29.7319 103.917 27.7768 103.21 27.3065C102.503 26.8363 98.6032 29.072 96.109 33.1307C94.417 35.8778 93.2096 38.4352 92.8283 39.9614C91.2238 35.0529 89.7622 30.6724 88.4912 27.0673C89.2299 26.0279 90.2467 23.9242 91.5574 21.8041C93.5115 18.6198 96.5697 17.2668 95.9025 16.8214C95.2352 16.3759 91.899 17.9515 89.9369 21.1276C88.9996 22.6455 88.2767 24.114 87.8478 25.2772C84.6942 16.5491 82.899 13.406 83.2962 20.2284C83.3994 22.0268 83.7172 24.1635 84.2176 26.5641C83.1452 26.0196 81.6836 25.4669 80.0234 25.0049C76.5124 24.0397 73.0332 25.2277 72.8267 26.0196C72.6201 26.8116 75.7578 25.6649 79.2768 26.6301C81.3977 27.2158 83.3359 27.95 84.5909 28.2635C85.4727 32.083 86.7436 36.4883 88.3085 41.2813C86.974 40.4646 84.5353 39.4911 81.6757 38.7074C77.1956 37.4783 72.8664 38.5672 72.6519 39.4169C72.4374 40.2666 76.3297 39.1942 80.8099 40.4233C84.3288 41.3885 87.4744 42.6177 88.7692 42.692C89.8654 45.9918 91.0808 49.4566 92.3914 53.0287C90.8981 52.1295 88.5468 51.1725 85.8381 50.4301C80.9846 49.0936 76.147 50.8673 75.8531 52.0222C75.5592 53.1772 79.9202 51.4613 84.7737 52.7977C88.4356 53.8041 91.7083 55.1571 93.2176 55.2726C94.4329 58.5311 95.7198 61.8639 97.0463 65.2298C95.6165 64.2646 93.3923 63.2911 90.8107 62.5817C86.1002 61.2865 81.215 63.7036 80.8655 65.0978C80.508 66.492 84.9166 64.1738 89.6271 65.469C93.432 66.5085 96.7683 68.0676 98.1028 67.8944C99.6438 71.7469 101.233 75.6242 102.829 79.4438C101.479 78.2476 98.8177 76.9607 95.6165 76.0862C90.7471 74.7498 85.6872 77.3154 85.3138 78.792C84.9405 80.2605 89.508 77.8021 94.3773 79.1385C98.9528 80.3925 102.885 82.3889 103.647 81.3989C105.157 84.9875 106.666 88.5183 108.143 91.9336C106.682 90.8777 104.291 89.797 101.487 89.0215C96.6174 87.6851 91.5574 90.2507 91.184 91.7274C90.8107 93.1958 95.3782 90.7374 100.248 92.0738C104.45 93.2288 108.096 94.9942 109.263 94.5157C110.614 97.6258 111.94 100.612 113.195 103.45C112.067 102.551 109.192 101.346 105.729 100.398C101.113 99.1272 96.665 100.183 96.4506 101.033C96.2361 101.883 100.232 100.843 104.855 102.105C109.16 103.285 112.941 104.844 113.608 104.357C115.15 107.814 116.595 111.007 117.89 113.861C117.151 113.16 115.07 111.865 112.417 110.982C109.017 109.852 105.991 109.81 105.879 110.19C105.76 110.561 108.723 110.817 112.123 111.955C115.269 113.003 117.691 114.438 118.12 114.348C118.732 115.692 119.32 116.971 119.86 118.151C119.328 116.897 118.788 115.593 118.24 114.249C118.621 113.729 119.32 111.081 120.702 108.193C122.291 104.877 124.181 102.501 123.848 102.32C123.506 102.147 121.417 104.423 119.828 107.74C118.653 110.198 118.081 112.533 118.001 113.655C116.818 110.718 115.61 107.591 114.403 104.333C115.316 103.425 116.921 100.134 118.994 96.7678C121.568 92.5853 125.19 90.5394 124.483 90.0692C123.776 89.599 119.812 91.9418 117.239 96.1244C115.571 98.8385 114.355 101.371 113.894 102.947C112.846 100.109 111.789 97.1721 110.733 94.1692C111.948 94.4827 113.545 90.2094 116.135 86.0104C118.851 81.6051 123.816 80.2027 122.585 79.386C121.353 78.5693 115.952 80.2275 113.235 84.641C111.4 87.6273 110.256 90.5229 110.09 92.3461C108.747 88.4935 107.405 84.5502 106.07 80.5905C107.27 80.5822 108.85 76.4657 111.337 72.4151C114.053 68.0099 119.018 66.6074 117.787 65.7907C116.556 64.974 111.154 66.6322 108.437 71.0375C106.714 73.8423 105.601 76.5729 105.339 78.4043C104.06 74.56 102.797 70.7157 101.558 66.9209C102.662 66.2115 104.124 62.6477 106.293 59.1251C108.922 54.8601 113.672 53.4659 112.496 52.6904C111.329 51.915 106.157 53.5649 103.536 57.8299C102.09 60.181 101.09 62.4662 100.669 64.1903C99.5644 60.775 98.4762 57.4257 97.4276 54.1671C98.4444 53.7794 100.136 49.9021 102.543 45.9918Z" fill="#DEDEFB"></path><path d="M53.7702 263.401C86.1399 266.601 113.966 259.094 115.205 253.295C116.397 247.718 87.8795 222.887 55.8276 217.104C23.8312 211.329 6.03784 220.354 4.32205 237.398C2.2488 257.915 21.1702 260.183 53.7702 263.401Z" fill="#E8E8FE"></path><path d="M40.0121 249.954C36.7156 254.029 35.8577 259.193 35.1586 258.311C34.4596 257.428 35.5081 251.769 38.8047 247.694C40.9971 244.988 43.1498 242.942 44.5637 242.125C41.0527 241.779 37.6847 241.449 34.539 241.127C34.1498 242.224 31.5285 244.856 28.923 248.073C25.8727 251.835 24.7765 256.215 24.2681 255.564C23.7597 254.92 25.0466 250.111 28.0969 246.341C30.1622 243.791 32.1401 241.812 33.3714 241.003C28.9627 240.541 25.0148 240.104 21.7659 239.667C21.0034 240.739 19.3749 242.397 17.7783 244.369C15.3873 247.322 14.7121 250.993 14.2355 250.383C13.7589 249.772 14.5691 245.747 16.9601 242.793C18.104 241.383 19.232 240.211 20.1534 239.444C12.2655 238.306 9.3185 237.184 15.157 235.831C16.698 235.476 18.5568 235.261 20.6697 235.179C20.0422 234.156 19.3432 232.721 18.6997 231.046C17.3335 227.49 17.7942 223.407 18.4376 222.978C19.081 222.549 18.5965 226.253 19.9628 229.808C20.7889 231.953 21.7103 233.867 22.179 235.146C25.555 235.105 29.487 235.336 33.7924 235.773C32.8868 234.535 31.6873 232.151 30.5753 229.256C28.8356 224.718 29.0819 219.744 29.765 219.29C30.4482 218.837 30.1542 223.341 31.8939 227.87C33.2601 231.434 34.7932 234.527 35.0633 235.905C38.0262 236.227 41.156 236.647 44.389 237.134C43.396 235.748 42.2124 233.455 41.1639 230.708C39.2734 225.791 40.02 220.082 40.9494 219.472C41.8788 218.853 41.1083 224.026 42.9989 228.942C44.4207 232.646 46.0809 235.839 46.4145 237.448C49.3695 237.918 52.396 238.438 55.4542 238.998C54.4136 237.703 53.238 235.55 52.2371 232.935C50.4022 228.167 51.689 222.244 52.817 221.493C53.945 220.742 52.6661 226.121 54.501 230.897C55.9785 234.742 57.8134 237.959 57.8849 239.452C61.396 240.112 64.9229 240.822 68.41 241.556C67.1867 240.409 65.6854 237.852 64.4383 234.61C62.5478 229.676 63.9299 223.522 65.1214 222.739C66.313 221.947 64.9387 227.54 66.8293 232.473C68.6086 237.109 70.9122 240.846 70.1894 241.935C73.47 242.637 76.6951 243.346 79.8248 244.055C78.6968 242.752 77.41 240.442 76.3217 237.604C74.4312 232.671 75.8134 226.517 77.0049 225.733C78.1964 224.941 76.8222 230.534 78.7127 235.468C80.3491 239.724 82.4144 243.214 82.192 244.6C85.0357 245.252 87.7762 245.903 90.3738 246.53C89.4364 245.54 87.9669 242.744 86.6165 239.229C84.8213 234.552 85.0199 229.462 85.703 229C86.3861 228.546 86.132 233.158 87.9272 237.827C89.6032 242.183 91.5097 245.879 91.2078 246.728C94.3773 247.496 97.3084 248.221 99.9377 248.89C99.2307 248.279 97.8089 246.349 96.6412 243.709C95.1478 240.327 94.6474 237.052 94.9492 236.829C95.2511 236.606 95.9263 239.749 97.4196 243.132C98.8018 246.266 100.398 248.51 100.383 249.005C101.622 249.319 102.797 249.616 103.878 249.896C102.734 249.649 101.542 249.401 100.319 249.162C99.9377 249.715 97.8009 251.158 95.5688 253.419C93.0031 256.009 91.2873 258.682 91.0807 258.36C90.8821 258.038 92.4788 255.176 95.0445 252.586C96.943 250.663 98.8336 249.434 99.7709 249.055C97.0939 248.535 94.2581 248.048 91.3111 247.586C90.6836 248.815 88.1416 251.414 85.6156 254.541C82.4779 258.426 81.3023 262.881 80.7939 262.237C80.2855 261.594 81.6518 256.686 84.7974 252.8C86.831 250.284 88.793 248.304 90.056 247.388C87.4823 246.992 84.8292 246.613 82.1284 246.258C82.5812 247.496 79.2052 250.35 76.0517 254.244C72.7392 258.335 72.3341 264.085 71.4445 262.963C70.5548 261.842 71.1267 255.555 74.4391 251.464C76.6792 248.692 78.9669 246.695 80.4841 246.044C77.0049 245.59 73.4621 245.161 69.8955 244.757C70.0782 246.06 66.8293 248.848 63.7869 252.602C60.4745 256.694 60.0694 262.444 59.1797 261.322C58.2901 260.2 58.862 253.914 62.1744 249.822C64.2794 247.215 66.4242 245.301 67.9334 244.534C64.478 244.146 61.0147 243.783 57.6069 243.437C57.178 244.814 54.3819 247.339 51.7367 250.606C48.5275 254.565 48.0906 260.084 47.2486 259.012C46.4066 257.948 47.0024 251.917 50.2036 247.949C51.967 245.771 53.7543 244.08 55.1444 243.181C52.0782 242.868 49.0677 242.571 46.1445 242.29C45.9697 243.478 42.9432 246.324 40.0121 249.954Z" fill="#DEDEFB"></path><path d="M154.406 45.4638C141.633 66.2197 125.413 79.7407 121.894 78.0413C118.51 76.4079 118.51 48.8378 129.821 27.1827C141.109 5.56063 153.644 -1.303 163.12 4.85117C174.527 12.2593 167.267 24.5594 154.406 45.4638Z" fill="#C8C8D1"></path><path d="M155.201 43.2446C142.427 64.0005 126.207 77.5215 122.696 75.8221C119.312 74.1887 119.312 46.6269 130.623 24.9718C141.911 3.34976 154.446 -3.51388 163.922 2.64029C175.321 10.0401 168.061 22.3402 155.201 43.2446Z" fill="#EDEDF0"></path><path d="M123.236 73.9082C123.236 73.9082 124.261 71.4911 125.992 67.5808C124.88 69.8907 123.943 72.0191 123.236 73.9082Z" fill="#DFEAFE"></path><path d="M154.446 29.3277C157.997 29.0637 161.015 30.7301 160.88 29.9464C160.737 29.1544 157.385 27.3972 153.826 27.653C151.467 27.8262 149.457 28.2552 148.417 28.7584C149.807 26.5063 151.134 24.3449 152.365 22.3238C153.096 22.5548 155.606 22.0928 158.418 21.8865C161.698 21.6473 164.423 22.8352 164.32 22.2495C164.216 21.6721 161.182 20.4181 157.901 20.6574C155.677 20.8223 153.787 21.1771 152.825 21.5731C154.557 18.7352 156.082 16.1861 157.314 14.0495C158.195 14.0412 159.768 13.769 161.492 13.637C164.066 13.4472 166.242 14.5939 166.147 14.0495C166.051 13.505 163.629 12.2923 161.055 12.482C159.824 12.5728 158.727 12.7543 157.917 12.9853C160.848 7.77154 161.587 5.5359 158.291 8.4645C157.425 9.23996 156.487 10.2629 155.502 11.4921C155.264 10.6836 154.835 9.66069 154.263 8.56349C153.056 6.24537 150.76 4.80169 150.252 5.00793C149.743 5.21417 151.856 6.4846 153.064 8.80273C153.795 10.2052 154.359 11.5663 154.803 12.383C153.278 14.3877 151.65 16.8461 149.958 19.6097C149.728 18.5455 149.044 16.8213 148.059 14.9322C146.518 11.9788 143.865 10.0237 143.325 10.2464C142.785 10.4691 145.224 12.1851 146.765 15.1384C147.98 17.4648 148.878 19.6839 149.465 20.4264C148.314 22.3403 147.13 24.3944 145.946 26.5393C145.684 25.3596 145.033 23.6849 144.096 21.8948C142.427 18.694 139.171 16.7306 138.448 17.0275C137.717 17.3245 140.704 19.0404 142.38 22.2495C143.643 24.6666 144.532 27.0095 145.208 27.884C144.135 29.8556 143.055 31.885 141.975 33.9557C141.776 32.7842 141.196 31.1756 140.307 29.4679C138.686 26.3578 135.088 24.6336 134.198 24.9966C133.316 25.3596 136.629 26.861 138.257 29.9711C139.568 32.479 140.394 34.9374 141.125 35.6056C139.901 37.9897 138.694 40.4068 137.518 42.7992C137.479 41.5783 136.843 39.6066 135.739 37.4947C134.063 34.2774 130.298 32.5202 129.36 32.8997C128.431 33.2792 131.902 34.8136 133.578 38.0227C135.159 41.042 136.041 43.9954 136.915 44.0284C135.811 46.2888 134.738 48.5244 133.713 50.7023C133.547 49.4813 132.943 47.7324 131.974 45.8845C130.298 42.6672 126.533 40.91 125.603 41.2895C124.674 41.669 128.145 43.2034 129.821 46.4125C131.267 49.1844 132.133 51.8985 132.943 52.3522C132.014 54.3321 131.124 56.2542 130.29 58.0774C130.202 57.0957 129.424 55.0333 128.232 52.7482C126.644 49.6958 123.943 47.6747 123.411 47.8892C122.871 48.1119 125.341 49.8938 126.938 52.9462C128.423 55.784 129.456 58.4816 130.028 58.6631C129.011 60.8905 128.074 62.9529 127.247 64.809C127.247 64.1243 126.898 62.4662 126.064 60.6513C124.999 58.3331 123.546 56.6502 123.3 56.7327C123.053 56.8152 124.356 58.5476 125.42 60.874C126.413 63.0271 126.85 64.9245 127.104 65.1225C126.715 65.997 126.342 66.8302 126.008 67.5974C126.39 66.8054 126.795 65.9887 127.216 65.1555C127.668 65.1555 129.36 64.4873 131.505 64.0996C133.968 63.6541 136.104 63.7448 136.025 63.4891C135.954 63.2334 133.777 62.9859 131.307 63.4314C129.48 63.7613 128.01 64.3801 127.398 64.776C128.328 62.9529 129.337 61.0472 130.409 59.0838C131.315 59.2241 133.777 58.7951 136.502 58.5971C139.886 58.3496 142.682 59.5293 142.578 58.9518C142.475 58.3744 139.353 57.1287 135.977 57.3762C133.785 57.5412 131.902 57.8794 130.87 58.2506C131.815 56.543 132.8 54.7941 133.817 53.0204C134.246 53.8124 137.209 52.9957 140.6 52.7482C144.167 52.4842 147.289 54.6621 147.106 53.6556C146.923 52.6492 143.46 50.3393 139.893 50.6033C137.479 50.7765 135.445 51.3045 134.436 51.9397C135.755 49.6628 137.113 47.3529 138.495 45.0513C139.083 45.703 141.951 44.9358 145.224 44.6966C148.79 44.4326 151.912 46.6105 151.729 45.604C151.547 44.5976 148.083 42.2877 144.517 42.5517C142.245 42.7167 140.314 43.1952 139.25 43.7726C140.593 41.537 141.943 39.3096 143.285 37.1152C144.183 37.437 146.717 36.8265 149.561 36.6203C153.016 36.3728 156.027 38.4269 155.852 37.4782C155.685 36.5213 152.333 34.3351 148.886 34.5909C146.987 34.7311 145.327 35.0858 144.247 35.5396C145.454 33.5679 146.638 31.6375 147.797 29.7649C148.488 30.1774 151.284 29.5586 154.446 29.3277Z" fill="#DEDEFB"></path><path d="M110.336 267.897C110.717 263.285 109.851 259.581 108.803 257.238C110.534 259.4 112.481 261.47 108.286 254.095C108.286 254.095 103.481 246.233 94.8778 237.464C95.5132 235.666 95.6483 232.052 93.5671 226.756C90.6598 219.348 88.7692 217.657 87.8478 218.399C86.688 219.323 88.9678 222.788 90.8504 228.555C91.7878 231.417 92.312 233.636 92.6536 235.27C89.0949 231.838 84.9802 228.357 80.373 225.23C81.4453 223.432 81.8425 217.88 77.2671 210.554C72.1991 202.436 69.4825 201.149 68.4419 202.527C67.1312 204.251 70.674 207.625 74.1373 214.118C76.6078 218.754 77.7437 222.087 78.4745 223.984C74.1929 221.245 69.5142 218.837 64.4781 217.055C64.6608 214.646 63.6122 209.902 59.1957 204.086C53.389 196.422 50.7597 195.276 50.0368 196.645C49.1313 198.361 52.8329 201.488 56.9397 207.642C59.4816 211.445 60.975 214.341 61.952 216.221C57.178 214.77 52.1101 213.887 46.78 213.821C46.78 213.821 41.9345 214.572 44.5955 216.04C46.1445 216.89 48.7103 215.578 56.6696 217.005C58.584 217.352 60.7367 217.921 63.0721 218.713C62.8179 220 63.3898 223.885 62.6987 230.757C61.9918 237.802 60.1648 241.952 61.8408 243.189C63.1753 244.171 65.0023 242.199 66.5037 233.191C67.6872 226.088 66.1621 221.32 64.764 219.315C68.8311 220.833 73.3589 223.003 78.0058 225.857C77.0129 226.286 78.395 231.12 77.4974 240.912C76.719 249.376 74.3677 254.277 76.6554 255.877C78.4745 257.156 80.8893 254.895 82.6845 244.105C84.1461 235.344 81.7949 229.388 79.8169 227.004C84.2812 229.891 88.8169 233.414 93.154 237.588C93.154 237.604 93.162 237.613 93.162 237.629C92.1134 237.621 93.44 241.399 92.4471 248.362C91.5971 254.293 89.1902 259.383 91.4541 258.962C95.0128 258.294 96.5856 257.758 97.38 251.736C98.071 246.514 96.9748 242.463 95.6165 240.063C99.7154 244.336 103.568 249.22 106.92 254.747C106.348 255.11 107.81 260.505 106.396 266.973C105.125 272.789 102.233 274.241 104.529 276.237C106.348 277.788 109.676 275.899 110.336 267.897Z" fill="#FEF070"></path><path d="M216.794 269.835H117.469C111.13 269.835 105.991 264.498 105.991 257.915V58.4981C105.991 51.9149 111.13 46.5775 117.469 46.5775H216.794C223.133 46.5775 228.273 51.9149 228.273 58.4981V257.915C228.273 264.498 223.133 269.835 216.794 269.835Z" fill="#474764"></path><path d="M174.265 57.1204H154.581C153.691 57.1204 152.961 56.3697 152.961 55.4375C152.961 54.5135 153.683 53.7545 154.581 53.7545H174.273C175.163 53.7545 175.893 54.5053 175.893 55.4375C175.885 56.3614 175.163 57.1204 174.265 57.1204Z" fill="white"></path><path d="M181.311 55.4375C181.311 56.3615 180.588 57.1204 179.69 57.1204C178.793 57.1204 178.07 56.3697 178.07 55.4375C178.07 54.5135 178.793 53.7545 179.69 53.7545C180.588 53.7545 181.311 54.5053 181.311 55.4375Z" fill="white"></path><path d="M186.498 55.4375C186.498 56.3615 185.775 57.1204 184.878 57.1204C183.98 57.1204 183.257 56.3697 183.257 55.4375C183.257 54.5135 183.98 53.7545 184.878 53.7545C185.775 53.7545 186.498 54.5053 186.498 55.4375Z" fill="white"></path><path d="M215.285 261.553H118.978C115.745 261.553 113.116 258.83 113.116 255.465V69.0492C113.116 65.6916 115.737 62.961 118.978 62.961H215.285C218.518 62.961 221.147 65.6834 221.147 69.0492V255.465C221.147 258.83 218.526 261.553 215.285 261.553Z" fill="white"></path><g opacity="0.2"><g opacity="0.2"><path opacity="0.2" d="M212.211 124.495H122.052C120.94 124.495 120.043 123.562 120.043 122.407V114.851H214.213V122.407C214.221 123.562 213.315 124.495 212.211 124.495Z" fill="#608FDF"></path><g opacity="0.2"><path opacity="0.2" d="M214.22 114.859H120.05V77.835C120.05 75.4509 121.909 73.5205 124.205 73.5205H210.058C212.353 73.5205 214.212 75.4509 214.212 77.835V114.859H214.22Z" fill="#23399B"></path><g opacity="0.2"><path opacity="0.2" d="M177.625 94.1857C177.625 100.208 172.922 105.083 167.132 105.083C161.333 105.083 156.638 100.2 156.638 94.1857C156.638 88.1717 161.341 83.288 167.132 83.288C172.93 83.288 177.625 88.1717 177.625 94.1857Z" fill="#FB660A"></path><path opacity="0.2" d="M163.017 87.982V100.389L173.272 94.1857L163.017 87.982Z" fill="white"></path></g></g><g opacity="0.2"><path opacity="0.2" d="M205.546 119.24H125.913V120.106H205.546V119.24Z" fill="white"></path></g><g opacity="0.2"><path opacity="0.2" d="M205.538 119.24H145.668V120.106H205.538V119.24Z" fill="#23399B"></path></g><path opacity="0.2" d="M211.671 118.877C211.607 118.192 211.147 117.697 210.559 117.697C210.169 117.697 209.812 117.911 209.613 118.266C209.415 117.911 209.073 117.697 208.692 117.697C208.104 117.697 207.643 118.192 207.58 118.877C207.572 118.91 207.556 119.066 207.612 119.322C207.699 119.693 207.89 120.04 208.176 120.304L209.605 121.648L211.059 120.304C211.345 120.031 211.544 119.693 211.631 119.322C211.695 119.066 211.671 118.91 211.671 118.877ZM208.835 118.357C208.485 118.357 208.207 118.654 208.207 119.009C208.207 119.05 208.168 119.091 208.128 119.091C208.088 119.091 208.049 119.058 208.049 119.009C208.049 118.555 208.406 118.192 208.835 118.192C208.883 118.192 208.914 118.225 208.914 118.274C208.914 118.324 208.883 118.357 208.835 118.357Z" fill="#FB660A"></path><path opacity="0.2" d="M146.415 117.779H144.922V121.665H146.415V117.779Z" fill="#23399B"></path></g></g><path d="M120.17 219.843H121.576V219.348H120.17V219.843ZM122.99 219.843H124.396V219.348H122.99V219.843ZM125.802 219.843H127.208V219.348H125.802V219.843ZM128.614 219.843H130.02V219.348H128.614V219.843ZM131.426 219.843H132.832V219.348H131.426V219.843ZM134.238 219.843H135.644V219.348H134.238V219.843ZM137.05 219.843H138.456V219.348H137.05V219.843ZM139.87 219.843H141.276V219.348H139.87V219.843ZM142.682 219.843H144.088V219.348H142.682V219.843ZM145.494 219.843H146.9V219.348H145.494V219.843ZM148.306 219.843H149.712V219.348H148.306V219.843ZM151.118 219.843H152.524V219.348H151.118V219.843ZM153.938 219.843H155.344V219.348H153.938V219.843ZM156.75 219.843H158.156V219.348H156.75V219.843ZM159.562 219.843H160.968V219.348H159.562V219.843Z" fill="#6C63FF"></path><path d="M120.194 243.445H121.6V242.95H120.194V243.445ZM123.006 243.445H124.412V242.95H123.006V243.445ZM125.826 243.445H127.232V242.95H125.826V243.445ZM128.638 243.445H130.044V242.95H128.638V243.445ZM131.45 243.445H132.856V242.95H131.45V243.445ZM134.262 243.445H135.668V242.95H134.262V243.445ZM137.074 243.445H138.48V242.95H137.074V243.445ZM139.886 243.445H141.292V242.95H139.886V243.445ZM142.705 243.445H144.111V242.95H142.705V243.445ZM145.517 243.445H146.923V242.95H145.517V243.445ZM148.329 243.445H149.735V242.95H148.329V243.445ZM151.141 243.445H152.547V242.95H151.141V243.445ZM153.953 243.445H155.359V242.95H153.953V243.445ZM156.773 243.445H158.179V242.95H156.773V243.445ZM159.585 243.445H160.991V242.95H159.585V243.445ZM162.397 243.445H163.803V242.95H162.397V243.445Z" fill="#6C63FF"></path><path d="M162.683 231.574H125.802V231.92H162.683V231.574Z" fill="white"></path><path d="M123.792 231.747C123.792 233.702 125.317 235.294 127.208 235.294C129.09 235.294 130.623 233.71 130.623 231.747C130.623 229.784 129.098 228.2 127.208 228.2C125.317 228.2 123.792 229.792 123.792 231.747Z" fill="#6C63FF"></path><path d="M126.918 234.223H127.498V229.273H126.918V234.223Z" fill="white"></path><path d="M124.823 231.448V232.051H129.589V231.448H124.823Z" fill="white"></path><path d="M214.093 219.893H212.687V219.398H214.093V219.893ZM211.281 219.893H209.875V219.398H211.281V219.893ZM208.469 219.893H207.063V219.398H208.469V219.893ZM205.65 219.893H204.244V219.398H205.65V219.893ZM202.838 219.893H201.432V219.398H202.838V219.893ZM200.026 219.893H198.62V219.398H200.026V219.893ZM197.214 219.893H195.808V219.398H197.214V219.893ZM194.402 219.893H192.996V219.398H194.402V219.893ZM191.59 219.893H190.184V219.398H191.59V219.893ZM188.77 219.893H187.364V219.398H188.77V219.893ZM185.958 219.893H184.552V219.398H185.958V219.893ZM183.146 219.893H181.74V219.398H183.146V219.893ZM180.334 219.893H178.928V219.398H180.334V219.893ZM177.522 219.893H176.116V219.398H177.522V219.893ZM174.71 219.893H173.304V219.398H174.71V219.893Z" fill="#6C63FF"></path><path d="M214.07 243.494H212.664V242.999H214.07V243.494ZM211.258 243.494H209.852V242.999H211.258V243.494ZM208.446 243.494H207.04V242.999H208.446V243.494ZM205.634 243.494H204.228V242.999H205.634V243.494ZM202.814 243.494H201.408V242.999H202.814V243.494ZM200.002 243.494H198.596V242.999H200.002V243.494ZM197.19 243.494H195.784V242.999H197.19V243.494ZM194.378 243.494H192.972V242.999H194.378V243.494ZM191.566 243.494H190.16V242.999H191.566V243.494ZM188.746 243.494H187.34V242.999H188.746V243.494ZM185.934 243.494H184.528V242.999H185.934V243.494ZM183.122 243.494H181.716V242.999H183.122V243.494ZM180.31 243.494H178.904V242.999H180.31V243.494ZM177.498 243.494H176.092V242.999H177.498V243.494ZM174.686 243.494H173.28V242.999H174.686V243.494ZM171.866 243.494H170.46V242.999H171.866V243.494Z" fill="#6C63FF"></path><path d="M208.47 231.623H171.588V231.97H208.47V231.623Z" fill="white"></path><path d="M210.471 231.797C210.471 233.752 208.946 235.344 207.056 235.344C205.165 235.344 203.64 233.76 203.64 231.797C203.64 229.841 205.165 228.249 207.056 228.249C208.946 228.249 210.471 229.833 210.471 231.797Z" fill="#6C63FF"></path><path d="M207.35 229.322H206.77V234.271H207.35V229.322Z" fill="white"></path><path d="M204.678 231.496V232.098H209.444V231.496H204.678Z" fill="white"></path><path d="M120.17 181.495H121.576V181H120.17V181.495ZM122.99 181.495H124.396V181H122.99V181.495ZM125.802 181.495H127.208V181H125.802V181.495ZM128.614 181.495H130.02V181H128.614V181.495ZM131.426 181.495H132.832V181H131.426V181.495ZM134.238 181.495H135.644V181H134.238V181.495ZM137.05 181.495H138.456V181H137.05V181.495ZM139.87 181.495H141.276V181H139.87V181.495ZM142.682 181.495H144.088V181H142.682V181.495ZM145.494 181.495H146.9V181H145.494V181.495ZM148.306 181.495H149.712V181H148.306V181.495ZM151.118 181.495H152.524V181H151.118V181.495ZM153.938 181.495H155.344V181H153.938V181.495ZM156.75 181.495H158.156V181H156.75V181.495ZM159.562 181.495H160.968V181H159.562V181.495Z" fill="#6C63FF"></path><path d="M120.194 205.089H121.6V204.594H120.194V205.089ZM123.006 205.089H124.412V204.594H123.006V205.089ZM125.826 205.089H127.232V204.594H125.826V205.089ZM128.638 205.089H130.044V204.594H128.638V205.089ZM131.45 205.089H132.856V204.594H131.45V205.089ZM134.262 205.089H135.668V204.594H134.262V205.089ZM137.074 205.089H138.48V204.594H137.074V205.089ZM139.886 205.089H141.292V204.594H139.886V205.089ZM142.705 205.089H144.111V204.594H142.705V205.089ZM145.517 205.089H146.923V204.594H145.517V205.089ZM148.329 205.089H149.735V204.594H148.329V205.089ZM151.141 205.089H152.547V204.594H151.141V205.089ZM153.953 205.089H155.359V204.594H153.953V205.089ZM156.773 205.089H158.179V204.594H156.773V205.089ZM159.585 205.089H160.991V204.594H159.585V205.089ZM162.397 205.089H163.803V204.594H162.397V205.089Z" fill="#6C63FF"></path><path d="M162.683 193.218H125.802V193.564H162.683V193.218Z" fill="white"></path><path d="M123.792 193.391C123.792 195.346 125.317 196.938 127.208 196.938C129.09 196.938 130.623 195.354 130.623 193.391C130.623 191.436 129.098 189.844 127.208 189.844C125.317 189.852 123.792 191.436 123.792 193.391Z" fill="#6C63FF"></path><path d="M126.918 195.864H127.498V190.914H126.918V195.864Z" fill="white"></path><path d="M124.828 193.095V193.697H129.594V193.095H124.828Z" fill="white"></path><path d="M214.093 181.537H212.687V181.042H214.093V181.537ZM211.281 181.537H209.875V181.042H211.281V181.537ZM208.469 181.537H207.063V181.042H208.469V181.537ZM205.65 181.537H204.244V181.042H205.65V181.537ZM202.838 181.537H201.432V181.042H202.838V181.537ZM200.026 181.537H198.62V181.042H200.026V181.537ZM197.214 181.537H195.808V181.042H197.214V181.537ZM194.402 181.537H192.996V181.042H194.402V181.537ZM191.59 181.537H190.184V181.042H191.59V181.537ZM188.77 181.537H187.364V181.042H188.77V181.537ZM185.958 181.537H184.552V181.042H185.958V181.537ZM183.146 181.537H181.74V181.042H183.146V181.537ZM180.334 181.537H178.928V181.042H180.334V181.537ZM177.522 181.537H176.116V181.042H177.522V181.537ZM174.71 181.537H173.304V181.042H174.71V181.537Z" fill="#6C63FF"></path><path d="M214.07 205.138H212.664V204.643H214.07V205.138ZM211.258 205.138H209.852V204.643H211.258V205.138ZM208.446 205.138H207.04V204.643H208.446V205.138ZM205.634 205.138H204.228V204.643H205.634V205.138ZM202.814 205.138H201.408V204.643H202.814V205.138ZM200.002 205.138H198.596V204.643H200.002V205.138ZM197.19 205.138H195.784V204.643H197.19V205.138ZM194.378 205.138H192.972V204.643H194.378V205.138ZM191.566 205.138H190.16V204.643H191.566V205.138ZM188.746 205.138H187.34V204.643H188.746V205.138ZM185.934 205.138H184.528V204.643H185.934V205.138ZM183.122 205.138H181.716V204.643H183.122V205.138ZM180.31 205.138H178.904V204.643H180.31V205.138ZM177.498 205.138H176.092V204.643H177.498V205.138ZM174.686 205.138H173.28V204.643H174.686V205.138ZM171.866 205.138H170.46V204.643H171.866V205.138Z" fill="#6C63FF"></path><path d="M208.47 193.267H171.588V193.614H208.47V193.267Z" fill="white"></path><path d="M210.471 193.44C210.471 195.395 208.946 196.988 207.056 196.988C205.165 196.988 203.64 195.404 203.64 193.44C203.64 191.485 205.165 189.893 207.056 189.893C208.946 189.893 210.471 191.485 210.471 193.44Z" fill="#6C63FF"></path><path d="M207.35 190.965H206.77V195.915H207.35V190.965Z" fill="white"></path><path d="M204.683 193.143V193.745H209.449V193.143H204.683Z" fill="white"></path><path d="M120.17 142.256H121.576V141.761H120.17V142.256ZM122.99 142.256H124.396V141.761H122.99V142.256ZM125.802 142.256H127.208V141.761H125.802V142.256ZM128.614 142.256H130.02V141.761H128.614V142.256ZM131.426 142.256H132.832V141.761H131.426V142.256ZM134.238 142.256H135.644V141.761H134.238V142.256ZM137.05 142.256H138.456V141.761H137.05V142.256ZM139.87 142.256H141.276V141.761H139.87V142.256ZM142.682 142.256H144.088V141.761H142.682V142.256ZM145.494 142.256H146.9V141.761H145.494V142.256ZM148.306 142.256H149.712V141.761H148.306V142.256ZM151.118 142.256H152.524V141.761H151.118V142.256ZM153.938 142.256H155.344V141.761H153.938V142.256ZM156.75 142.256H158.156V141.761H156.75V142.256ZM159.562 142.256H160.968V141.761H159.562V142.256Z" fill="#595CEC"></path><path d="M120.194 165.858H121.6V165.363H120.194V165.858ZM123.006 165.858H124.412V165.363H123.006V165.858ZM125.826 165.858H127.232V165.363H125.826V165.858ZM128.638 165.858H130.044V165.363H128.638V165.858ZM131.45 165.858H132.856V165.363H131.45V165.858ZM134.262 165.858H135.668V165.363H134.262V165.858ZM137.074 165.858H138.48V165.363H137.074V165.858ZM139.886 165.858H141.292V165.363H139.886V165.858ZM142.705 165.858H144.111V165.363H142.705V165.858ZM145.517 165.858H146.923V165.363H145.517V165.858ZM148.329 165.858H149.735V165.363H148.329V165.858ZM151.141 165.858H152.547V165.363H151.141V165.858ZM153.953 165.858H155.359V165.363H153.953V165.858ZM156.773 165.858H158.179V165.363H156.773V165.858ZM159.585 165.858H160.991V165.363H159.585V165.858ZM162.397 165.858H163.803V165.363H162.397V165.858Z" fill="#595CEC"></path><path d="M162.683 153.987H125.802V154.333H162.683V153.987Z" fill="white"></path><path d="M123.792 154.16C123.792 156.115 125.317 157.707 127.208 157.707C129.09 157.707 130.623 156.123 130.623 154.16C130.623 152.205 129.098 150.613 127.208 150.613C125.317 150.613 123.792 152.197 123.792 154.16Z" fill="#595CEC"></path><path d="M126.918 156.631H127.498V151.681H126.918V156.631Z" fill="white"></path><path d="M124.825 153.859V154.461H129.592V153.859H124.825Z" fill="white"></path><path d="M214.093 142.306H212.687V141.811H214.093V142.306ZM211.281 142.306H209.875V141.811H211.281V142.306ZM208.469 142.306H207.063V141.811H208.469V142.306ZM205.65 142.306H204.244V141.811H205.65V142.306ZM202.838 142.306H201.432V141.811H202.838V142.306ZM200.026 142.306H198.62V141.811H200.026V142.306ZM197.214 142.306H195.808V141.811H197.214V142.306ZM194.402 142.306H192.996V141.811H194.402V142.306ZM191.59 142.306H190.184V141.811H191.59V142.306ZM188.77 142.306H187.364V141.811H188.77V142.306ZM185.958 142.306H184.552V141.811H185.958V142.306ZM183.146 142.306H181.74V141.811H183.146V142.306ZM180.334 142.306H178.928V141.811H180.334V142.306ZM177.522 142.306H176.116V141.811H177.522V142.306ZM174.71 142.306H173.304V141.811H174.71V142.306Z" fill="#595CEC"></path><path d="M214.07 165.907H212.664V165.412H214.07V165.907ZM211.258 165.907H209.852V165.412H211.258V165.907ZM208.446 165.907H207.04V165.412H208.446V165.907ZM205.634 165.907H204.228V165.412H205.634V165.907ZM202.814 165.907H201.408V165.412H202.814V165.907ZM200.002 165.907H198.596V165.412H200.002V165.907ZM197.19 165.907H195.784V165.412H197.19V165.907ZM194.378 165.907H192.972V165.412H194.378V165.907ZM191.566 165.907H190.16V165.412H191.566V165.907ZM188.746 165.907H187.34V165.412H188.746V165.907ZM185.934 165.907H184.528V165.412H185.934V165.907ZM183.122 165.907H181.716V165.412H183.122V165.907ZM180.31 165.907H178.904V165.412H180.31V165.907ZM177.498 165.907H176.092V165.412H177.498V165.907ZM174.686 165.907H173.28V165.412H174.686V165.907ZM171.866 165.907H170.46V165.412H171.866V165.907Z" fill="#595CEC"></path><path d="M208.47 154.036H171.588V154.383H208.47V154.036Z" fill="white"></path><path d="M210.471 154.209C210.471 156.165 208.946 157.757 207.056 157.757C205.165 157.757 203.64 156.173 203.64 154.209C203.64 152.254 205.165 150.662 207.056 150.662C208.946 150.662 210.471 152.246 210.471 154.209Z" fill="#595CEC"></path><path d="M207.35 151.735H206.77V156.684H207.35V151.735Z" fill="white"></path><path d="M204.68 153.907V154.509H209.446V153.907H204.68Z" fill="white"></path><path d="M369.738 296.737C369.738 300.119 372.383 303.172 364.432 302.858C355.829 302.512 359.126 300.119 359.126 296.737C359.126 293.355 358.49 290.649 364.432 290.616C370.564 290.583 369.738 293.355 369.738 296.737Z" fill="#FFC8B7"></path><path d="M349.228 186.045C349.228 186.045 343.104 190.004 340.252 190.301C337.4 190.59 335.589 189.947 335.2 188.742C334.811 187.538 334.199 183.999 337.615 181.73C341.03 179.453 342.897 177.292 342.897 177.292L349.228 186.045Z" fill="#FFC8B7"></path><path d="M314.594 193.255C314.96 193.288 319.353 192.677 319.694 192.603C322.872 191.918 337.186 190.846 338.965 190.978C340.911 191.118 343.779 188.412 343.779 188.412L345.082 184.749C345.058 183.966 344.462 182.514 343.668 182.547C340.736 182.654 334.421 182.431 327.773 184.947C318.979 188.288 317.295 189.353 314.984 188.891C312.672 188.429 312.354 187.81 310.392 187.175C308.43 186.54 303.855 188.198 303.775 190.095C303.68 192.223 304.776 192.058 305.833 192.174C306.587 192.256 307.183 192.248 307.572 192.141C309.01 191.745 309.709 191.695 309.717 192.199C309.733 192.694 309.344 193.312 308.637 193.783C307.938 194.253 307.461 195.507 308.677 195.301C309.9 195.094 309.161 194.443 310.885 193.972C312.124 193.618 313.752 193.172 314.594 193.255Z" fill="#FFC8B7"></path><path d="M341.92 177.16C341.999 177.465 344.819 187.183 348.275 187.282C348.275 187.282 363.598 177.589 358.585 171.08C353.613 164.604 341.92 177.16 341.92 177.16Z" fill="#DEDEFB"></path><path d="M400.233 289.395C402.378 291.523 405.976 292.027 400.773 296.094C395.141 300.499 395.697 297.216 393.561 295.087C391.416 292.959 389.303 291.598 393.02 288.389C396.857 285.081 398.088 287.267 400.233 289.395Z" fill="#FFC8B7"></path><path d="M404.682 291.259C405.714 292.06 407.279 293.173 407.279 294.023C407.263 296.407 402.545 299.138 398.263 302.792C392.703 307.536 388.215 306.034 384.426 306.043C382.924 306.043 382.726 302.504 384.362 302.215C386.848 301.769 390.034 302.289 393.14 300.045C395.999 297.991 402.735 289.75 404.682 291.259Z" fill="#101E41"></path><path d="M404.38 290.599C405.412 291.4 406.977 292.802 406.969 293.66C406.953 296.044 402.545 298.296 398.255 301.959C392.695 306.703 388.207 305.201 384.418 305.209C382.916 305.209 382.599 301.984 384.235 301.687C386.721 301.241 390.026 301.456 393.132 299.212C395.999 297.133 402.433 289.082 404.38 290.599Z" fill="#474764"></path><path d="M350.602 215.702C350.602 215.702 349.864 226.434 355.313 231.384C360.762 236.334 362.525 250.507 366.195 257.758C369.548 264.391 374.846 274.76 381.336 282.3C383.393 284.693 392.441 295.244 392.441 295.244L402.418 289.544C402.418 289.544 391.646 276.287 390.336 274.348C389.025 272.409 387.055 267.558 384.306 264.201C381.558 260.843 377.531 244.517 376.109 241.449C374.687 238.38 373.456 228.439 372.518 225.84C371.581 223.242 375.14 222.186 374.417 219.917C373.694 217.64 371.97 216.164 370.04 214.737C368.094 213.309 350.602 215.702 350.602 215.702Z" fill="#595CEC"></path><path d="M348.656 218.16C348.656 218.16 346.869 223.11 348.656 229.957C350.451 236.804 352.374 250.127 353.621 257.362C354.86 264.597 358.307 285.905 358.029 288.95C357.751 291.994 358.045 297.702 358.045 297.702H371.255C371.255 297.702 368.221 281.211 368.221 278.926C368.221 276.641 369.325 271.568 368.912 267.385C368.499 263.194 367.26 253.427 367.808 250.127C368.356 246.827 367.53 236.804 368.221 234.139C368.912 231.475 373.734 229.569 374.425 227.292C375.116 225.007 375.251 220.313 374.425 218.16C373.599 215.999 348.656 218.16 348.656 218.16Z" fill="#7779F8"></path><path d="M372.217 302.355C372.217 303.799 372.765 306.282 371.875 306.859C369.373 308.501 363.916 307.602 356.949 307.602C347.917 307.602 342.611 308.509 341.936 304.492C341.753 303.436 342.635 301.901 344.398 301.076C347.338 299.707 349.482 301.901 355.13 301.901C364.162 301.893 372.217 299.501 372.217 302.355Z" fill="#101E41"></path><path d="M372.28 301.109C372.224 302.553 372.606 304.888 371.867 305.614C369.802 307.643 364.09 306.356 357.283 306.356C348.458 306.356 343.27 307.264 342.603 303.246C342.428 302.19 342.587 301.596 344.311 300.771C347.187 299.402 350.149 300.21 355.678 300.639C364.464 301.324 372.383 298.527 372.28 301.109Z" fill="#474764"></path><path d="M362.081 166.749C361.167 164.876 361.334 163.589 361.246 161.139C361.151 158.689 362.335 155.876 362.335 155.876L361.223 152.543C361.072 145.061 356.711 139.055 351.333 139.055C345.86 139.055 341.428 145.267 341.428 152.931C341.428 160.529 345.376 163.292 350.785 163.399C350.944 163.696 351.516 167.401 351.643 167.722C351.945 169.686 350.809 171.501 352.183 173.802C352.564 175.378 357.91 176.261 359.928 173.802C361.922 171.336 362.994 168.621 362.081 166.749Z" fill="#FFC8B7"></path><path d="M351.516 168.555L361.342 162.467C361.342 162.467 366.132 166.221 368.976 170.37C371.827 174.512 373.066 183.396 372.153 186.523C371.231 189.65 370.437 198.328 371.446 205.01C372.455 211.692 375.632 219.051 374.87 219.472C374.107 219.892 368.372 222.178 358.149 221.163C347.925 220.148 347.56 222.293 347.56 222.293C347.56 222.293 348.751 201.875 348.942 197.99C348.942 197.99 347.655 187.925 348.394 183.784C349.125 179.635 351.333 169.999 351.516 168.555Z" fill="#F6F6F7"></path><path d="M352.247 182.794C352.247 182.794 349.284 189.625 349.387 192.603C349.49 195.581 350.356 197.346 351.556 197.586C352.755 197.825 356.21 197.982 357.926 194.154C359.642 190.334 361.453 188.123 361.453 188.123L352.247 182.794Z" fill="#FFC8B7"></path><path d="M371.446 205.01C370.437 198.328 371.66 190.31 372.256 187.1C373.416 180.839 372.002 174.759 369.15 170.618C366.299 166.477 361.342 162.467 361.342 162.467L358.84 164.018C359.364 164.785 360.126 165.379 360.849 166.006C365.576 170.09 368.284 176.087 368.102 182.052C368.054 183.71 367.792 185.36 367.538 187.001C366.275 195.226 365.226 203.484 364.821 211.775C364.662 214.976 364.615 218.218 365.059 221.386C370.969 221.146 374.314 219.793 374.886 219.472C375.64 219.051 372.463 211.692 371.446 205.01Z" fill="#DEDEFB"></path><path d="M361.699 189.122C361.397 189.08 351.746 187.48 351.19 183.941C351.19 183.941 358.387 166.873 365.274 171.154C372.113 175.411 361.699 189.122 361.699 189.122Z" fill="#DEDEFB"></path><path d="M360.714 188.437C360.444 188.404 351.706 186.935 351.206 183.504C351.206 183.504 358.482 166.592 365.067 171.03C371.144 175.139 360.714 188.437 360.714 188.437Z" fill="#F6F6F7"></path><path d="M332.064 186.669L288.612 166.793L275.141 198.555L318.594 218.431L332.064 186.669Z" fill="#FFF59C"></path><path d="M298.217 176.82L290.468 173.275L287.055 181.322L294.803 184.867L298.217 176.82Z" fill="#F96E6E"></path><path d="M311.335 196.571L285.6 184.799L285.052 186.09L310.788 197.862L311.335 196.571Z" fill="#3251B4"></path><path d="M299.562 194.967L284.252 187.963L283.705 189.254L299.015 196.258L299.562 194.967Z" fill="#3251B4"></path><path d="M298.237 198.128L282.927 191.125L282.38 192.416L297.69 199.419L298.237 198.128Z" fill="#3251B4"></path><path d="M296.871 201.264L281.562 194.261L281.015 195.552L296.323 202.555L296.871 201.264Z" fill="#3251B4"></path><path d="M321.847 199.219C321.593 198.988 321.759 198.543 322.101 198.567C323.443 198.658 326.263 199.376 326.541 199.293C329.687 198.444 345.232 192.322 346.781 191.39C348.465 190.367 353.668 190.524 353.668 190.524L356.838 194.203C357.148 194.913 357.14 196.324 356.512 196.835C354.161 198.732 345.892 200.82 338.854 201.62C329.552 202.684 329.965 202.882 328.098 204.367C326.232 205.844 324.834 206.809 322.824 207.229C315.222 208.789 317.669 204.499 319.09 202.436C319.464 201.892 320.091 201.603 320.735 201.669C323.698 201.95 325.715 202.791 321.847 199.219Z" fill="#FFC8B7"></path><path d="M365.647 147.239C365.647 141.81 362.406 135.483 355.742 134.848C354.431 134.724 352.906 134.914 351.468 135.252C350.682 133.792 348.942 132.777 346.916 132.777C344.788 132.777 342.969 133.907 342.254 135.491C341.991 135.483 341.721 135.483 341.42 135.483C329.401 135.483 337.345 144.706 336.709 146.1C336.145 147.329 339.696 144.557 342.206 144.731C342.023 145.044 341.928 145.399 341.928 145.762C341.928 147.197 343.437 148.361 345.288 148.361C346.67 148.361 347.854 147.717 348.37 146.793C348.505 146.925 348.593 147.074 348.593 147.239C348.593 152.667 352.413 157.072 357.124 157.072C357.712 157.072 358.284 157.006 358.832 156.874C358.927 158.903 359.984 160.504 361.286 160.504C362.653 160.504 363.765 158.747 363.765 156.577C363.765 155.645 363.55 154.803 363.209 154.127C364.718 152.353 365.647 149.928 365.647 147.239Z" fill="#F96E6E"></path><path d="M252.437 125.485L175.242 137.694C174.297 137.842 173.407 137.166 173.264 136.184L172.319 129.717L252.953 116.963L253.898 123.43C254.041 124.412 253.39 125.328 252.437 125.485Z" fill="#DEDEFB"></path><path d="M252.945 116.954L172.311 129.708L167.664 98.0135C167.362 95.9758 168.712 94.0619 170.682 93.7567L244.199 82.1248C246.161 81.8113 248.004 83.2138 248.298 85.2597L252.945 116.954Z" fill="#97FCDE"></path><path d="M219.026 104.217C219.781 109.373 216.373 114.183 211.409 114.975C206.444 115.758 201.813 112.219 201.05 107.063C200.296 101.907 203.703 97.0978 208.668 96.3059C213.633 95.5222 218.264 99.0612 219.026 104.217Z" fill="#F96E6E"></path><path d="M205.737 100.876L207.294 111.502L215.293 104.803L205.737 100.876Z" fill="white"></path><path d="M246.075 121.878L177.888 132.665L177.997 133.408L246.184 122.62L246.075 121.878Z" fill="white"></path><path d="M246.07 121.88L194.806 129.99L194.915 130.732L246.179 122.622L246.07 121.88Z" fill="#595CEC"></path><path d="M251.269 120.741C251.134 120.164 250.673 119.801 250.173 119.883C249.839 119.933 249.561 120.172 249.434 120.494C249.22 120.221 248.902 120.081 248.576 120.131C248.076 120.213 247.742 120.7 247.774 121.294C247.774 121.318 247.774 121.459 247.861 121.673C247.98 121.978 248.195 122.251 248.473 122.44L249.863 123.397L250.935 122.044C251.15 121.772 251.269 121.459 251.301 121.121C251.317 120.906 251.277 120.766 251.269 120.741ZM248.783 120.683C248.481 120.733 248.282 121.022 248.322 121.335C248.33 121.376 248.298 121.409 248.266 121.417C248.227 121.426 248.195 121.393 248.187 121.36C248.131 120.972 248.386 120.609 248.759 120.551C248.799 120.543 248.83 120.576 248.838 120.609C248.846 120.642 248.815 120.675 248.783 120.683Z" fill="#F96E6E"></path><path d="M195.27 128.649L193.99 128.852L194.478 132.179L195.758 131.976L195.27 128.649Z" fill="#23399B"></path><path d="M246.987 146.702L237.002 127.06C237.002 127.06 230.759 124.602 233.984 121.508C234.818 120.708 231.283 119.726 231.498 118.827C231.712 117.928 234.27 115.61 235.986 115.816C236.534 115.882 238.416 116.435 239.807 118.373C241.197 120.312 242.205 122.746 241.681 125.031C241.157 127.316 247.083 133.478 248.6 135.879C250.125 138.28 254.176 144.269 254.2 146.265C254.224 148.253 248.64 148.187 246.987 146.702Z" fill="#FFC8B7"></path><path d="M233.547 146.999C233.547 146.999 230.322 155.884 235.994 158.54C241.657 161.197 222.776 160.619 222.776 160.619C222.776 160.619 225.778 154.16 225.723 150.811C225.651 147.461 228.431 144.12 233.547 146.999Z" fill="#FFC8B7"></path><path d="M206.976 151.347L200.367 130.228C200.367 130.228 203.02 123.868 198.635 124.107C197.5 124.173 199.287 120.857 198.516 120.386C197.746 119.916 194.362 120.205 193.305 121.632C192.964 122.086 192.042 123.868 192.408 126.26C192.773 128.644 193.758 131.094 195.696 132.29C197.643 133.487 197.77 142.198 198.365 145.003C198.961 147.808 200.28 155.001 201.638 156.412C203.004 157.815 206.841 153.616 206.976 151.347Z" fill="#FFC8B7"></path><path d="M241.03 280.263V288.356C241.03 288.356 242.015 290.245 241.562 292.439C241.109 294.642 241.26 298.016 239.521 300.763C237.781 303.51 233.547 301.786 233.547 299.509C233.547 297.232 234 293.536 234.151 291.218C234.302 288.9 234 280.263 234 280.263H241.03Z" fill="#FFC8B7"></path><path d="M210.773 281.286C210.773 281.286 208.048 286.631 208.803 289.139C209.558 291.655 210.034 292.282 209.717 294.089C209.407 295.896 205.777 301.002 202.973 302.652C200.177 304.302 198.056 305.011 196.697 304.929C195.339 304.846 197.301 302.883 197.301 302.883L202.973 286.384L203.489 280.254L210.773 281.286Z" fill="#FFC8B7"></path><path d="M241.03 307.99H232.554C232.554 307.99 230.513 306.348 231.267 304.929C232.022 303.51 233.46 301.472 233.539 299.501C233.619 297.529 235.017 293.842 237.606 293.528C240.196 293.215 240.95 297.851 241.03 299.031C241.109 300.218 243.302 304.772 241.03 307.99Z" fill="#474764"></path><path d="M240.498 307.99L239.743 300.384L238.79 307.99H240.498Z" fill="#101E41"></path><path d="M237.122 307.99L236.391 298.907L235.001 307.99H237.122Z" fill="#101E41"></path><path d="M209.335 292.324C209.335 292.324 211.718 293.734 211.639 295.269C211.559 296.803 210.487 308.072 210.487 308.072H208.541V299.748L202.718 308.072H192.996C192.996 308.072 192.225 303.947 196.221 303.395C200.216 302.842 200.558 304.294 202.869 301.274C205.173 298.247 208.319 293.107 208.319 293.107C208.319 293.107 208.922 292.34 209.335 292.324Z" fill="#474764"></path><path d="M217.708 141.2C217.708 146.983 221.401 151.669 225.961 151.669C230.521 151.669 234.206 146.983 234.206 141.2C234.206 135.417 230.513 130.731 225.961 130.731C221.401 130.731 217.708 135.417 217.708 141.2Z" fill="#FFC8B7"></path><path d="M220.099 140.886C220.099 140.886 209.764 129.857 220.869 129.081C220.869 129.081 221.155 126.004 229.909 126.235C238.655 126.466 241.101 135.928 240.656 139.731C240.212 143.543 237.05 151.273 229.909 150.58C229.909 150.58 228.964 149.977 229.019 150.621C229.075 151.273 229.933 152.164 230.243 152.857C230.544 153.549 231.132 153.954 230.211 154.358C229.297 154.762 228.463 154.185 228.686 155.224C228.908 156.264 230.354 158.136 227.772 159.233C225.19 160.331 222.498 158.516 219.773 158.078C217.048 157.65 215.055 158.565 215.102 156C215.158 153.434 216.683 151.726 218.852 152.279L219.598 152.593C219.598 152.593 220.393 151.735 219.511 150.027C218.637 148.311 219.813 146.447 221.147 146.273C222.482 146.1 222.228 146.562 222.228 146.562C222.228 146.562 221.815 144.252 222.76 143.328C223.705 142.404 223.538 140.243 222.18 139.806C220.822 139.385 220.099 140.886 220.099 140.886Z" fill="#474764"></path><path d="M229.909 147.882C229.973 147.882 230.036 147.866 230.092 147.824C230.251 147.717 230.298 147.494 230.195 147.329C230.131 147.23 228.646 144.846 225.302 145.556C225.111 145.597 224.992 145.787 225.032 145.985C225.071 146.183 225.254 146.298 225.445 146.265C228.288 145.663 229.559 147.635 229.615 147.725C229.679 147.824 229.79 147.882 229.909 147.882Z" fill="#FB660A"></path><path d="M238.051 169.092C238.369 165.841 239.274 159.704 241.634 159.134C243.095 158.78 243.85 158.441 246.122 155.241C246.543 154.647 246.781 153.937 246.821 153.211L246.884 152.015C246.916 151.429 246.821 150.835 246.59 150.291C246.368 149.755 246.138 149.128 246.058 148.979L241.991 140.441C241.856 140.169 241.753 139.872 241.681 139.567C241.181 137.397 240.752 136.399 241.872 134.518C242.325 133.767 242.11 133.767 242.928 133.503L243.206 133.33C243.937 132.884 244.811 132.67 245.637 132.851C245.875 132.901 246.106 132.983 246.328 133.091C248.322 134.031 249.736 135.772 250.348 137.983C250.443 138.313 250.562 138.643 250.729 138.94C250.729 138.94 255.765 147.998 255.852 148.534C256.591 150.357 257.266 152.081 255.987 154.218L250.975 163.622C250.927 163.705 250.888 163.779 250.84 163.861C248.703 167.252 244.573 174.231 244.239 175.427C242.015 183.388 239.521 175.832 238.011 174.561C236.764 173.489 237.884 170.766 238.051 169.092Z" fill="#EDEDF0"></path><path d="M198.604 140.581C199.16 139.913 198.953 139.88 199.803 139.756L200.796 139.36C201.646 139.237 202.52 139.426 203.227 139.921C205.046 141.183 206.174 143.13 206.436 145.415C206.476 145.762 206.539 146.1 206.666 146.422L209.439 153.013L212.783 157.212C216.556 160.289 217.43 159.382 219.066 159.283C221.481 159.143 223.014 167.755 224.198 170.775C224.809 172.334 226.628 174.619 225.707 175.997C224.603 177.655 224.261 185.64 219.964 178.653C219.312 177.597 213.323 171.987 210.392 169.405L202.933 161.75C201.797 160.694 200.756 157.08 200.661 156.33C200.629 156.066 197.809 146.438 197.809 146.438C197.714 146.141 197.658 145.836 197.642 145.531C197.476 143.304 197.206 142.256 198.604 140.581Z" fill="#EDEDF0"></path><path d="M241.522 198.666C241.522 198.666 245.2 206.916 244.795 210.306C244.398 213.697 244.7 223.077 242.627 232.762C240.561 242.455 241.34 254.285 241.514 259.548C241.689 264.811 241.221 283.2 241.221 283.2C241.221 283.2 237.527 286.813 232.387 283.2C232.387 283.2 230.116 265.917 230.116 260.81C230.116 255.704 228.257 223.976 228.257 219.892C228.257 219.892 220.734 248.477 220.432 250.045C220.131 251.612 212.266 279.034 211.281 282.804L210.678 284.297C210.678 284.297 204.704 285.79 202.281 284.14L208.255 245.408C208.255 245.408 211.353 222.862 212.036 217.599C212.719 212.336 213.506 207.106 215.722 200.96C217.946 194.822 241.522 198.666 241.522 198.666Z" fill="#F96E6E"></path><path d="M244.771 169.908C244.771 169.908 242.309 182.118 243.469 190.549C244.628 198.98 248.322 202.329 246.153 203.377C243.985 204.433 225.969 207.196 217.708 203.88C209.447 200.572 222.943 189.773 218.74 177.275C214.538 164.777 217.954 159.819 218.82 159.365C219.686 158.912 226.795 158.763 228.241 159.365C229.694 159.968 233.46 160.38 235.779 158.969C238.099 157.559 244.477 158.912 244.763 160.273C245.057 161.634 245.113 168.102 244.771 169.908Z" fill="#EDEDF0"></path><path d="M37.2239 145.811C37.5893 152.997 35.9053 156.445 31.7588 157.179C26.6909 158.079 21.9725 155.661 20.3361 148.979C18.6998 142.305 21.4164 135.821 26.397 134.51C31.3855 133.19 36.8744 138.931 37.2239 145.811Z" fill="#FFC8B7"></path><path d="M23.3547 151.396C23.3547 151.396 24.2682 159.489 23.3547 163.383C22.4412 167.269 26.2858 169.455 28.5656 169.207C30.8454 168.96 34.8965 167.59 33.4747 164.86C32.0607 162.129 30.6388 159.077 31.044 155.612C31.457 152.139 23.3547 151.396 23.3547 151.396Z" fill="#FFC8B7"></path><path d="M38.4234 181.911C34.2054 177.118 23.0449 166.972 27.9142 162.74C32.7756 158.499 40.8303 168.597 41.8868 171.369C42.9433 174.14 46.5814 177.688 47.2566 178.587C47.9318 179.486 63.9299 180.691 65.1453 180.146C66.3686 179.602 68.4895 178.603 70.2847 178.232C72.6439 177.754 74.7013 179.965 73.8196 181.986C72.9458 184.007 71.7145 185.145 68.2512 184.287C64.7958 183.429 49.2742 187.059 46.8673 186.663C44.4605 186.276 40.1551 183.883 38.4234 181.911Z" fill="#FFC8B7"></path><path d="M17.1508 266.139C16.7537 266.874 9.46948 282.729 7.76957 286.4C6.06967 290.071 3.23384 294.691 3.23384 294.691C3.23384 294.691 0.652211 296.226 1.53394 298.041C2.42361 299.855 5.56128 302.347 7.31679 303.386C9.08025 304.426 12.3291 305.407 12.2497 304.087C12.1782 302.867 9.35827 299.641 8.04759 298.659C6.76075 297.702 18.4297 277.697 22.6239 273.729C26.818 269.753 17.1508 266.139 17.1508 266.139Z" fill="#FFC8B7"></path><path d="M2.66189 298.123C2.21705 297.183 2.32826 296.069 2.90019 295.203L3.24176 294.683C3.24176 294.683 1.64512 294.922 1.24 295.566C0.842831 296.201 -1.07949 298.519 0.834888 299.765C2.74132 301.01 8.6036 305.44 10.2876 306.678C11.9716 307.915 14.8869 307.973 14.4659 305.968C14.0449 303.964 11.4474 301.918 10.8595 301.604C10.8595 301.604 12.4959 304.17 11.4474 304.558C10.3988 304.945 4.40151 300.317 3.5595 299.517C3.32914 299.294 2.8287 298.478 2.66189 298.123Z" fill="#474764"></path><path d="M35.3096 268.623C35.4447 269.489 39.5038 287.267 40.4332 291.4C41.3626 295.524 41.9583 301.192 41.9583 301.192C41.9583 301.192 40.8303 304.186 42.6891 305.061C44.5479 305.927 48.6547 305.828 50.7358 305.482C52.817 305.135 56.0659 303.724 55.1683 302.71C54.3422 301.769 50.0368 301.06 48.3528 301.159C46.7085 301.258 43.6106 277.136 44.5082 271.081C45.4137 265.001 35.3096 268.623 35.3096 268.623Z" fill="#FFC8B7"></path><path d="M43.6423 304.36C42.697 303.898 42.0774 302.916 41.998 301.835L41.9503 301.184C41.9503 301.184 40.8065 302.462 40.8859 303.254C40.9653 304.038 40.8621 307.222 43.1975 306.934C45.5249 306.653 53.0553 306.274 55.2001 306.133C57.3448 305.993 59.7358 304.071 58.1391 302.726C56.5425 301.39 53.1427 301.489 52.4754 301.629C52.4754 301.629 55.4145 302.603 54.8029 303.626C54.1912 304.64 46.4305 304.962 45.2389 304.879C44.9212 304.855 43.9998 304.533 43.6423 304.36Z" fill="#474764"></path><path d="M24.0457 162.649C24.0457 162.649 21.1305 162.459 18.4615 163.16C16.3803 163.705 13.5365 169.067 13.3856 170.288C13.2029 171.756 15.0934 181.235 15.6336 189.93C16.1737 198.617 16.3723 200.861 13.2982 209.556C10.232 218.243 9.69186 229.462 10.5021 236.746C11.3123 244.031 11.0423 277.672 2.40769 285.526C-6.22687 293.371 10.9469 294.493 14.1799 293.132C17.4209 291.763 23.8948 288.298 26.532 289.139C29.1613 289.981 31.4888 292.761 36.2469 293.627C41.0051 294.493 50.7199 295.698 53.1506 293.627C55.5813 291.556 58.1074 289.874 55.5813 286.508C53.0474 283.142 39.5276 223.011 39.5593 219.018C39.5911 215.025 37.1922 207.246 37.2796 204.095C37.3669 200.943 37.915 195.894 39.5593 192.108C41.2116 188.321 43.7773 186.671 43.3007 181.928C42.8321 177.184 41.6802 174.454 39.051 171.649C36.4217 168.844 34.5788 162.542 33.7765 161.667C32.9742 160.776 24.0457 162.649 24.0457 162.649Z" fill="#FEF070"></path><path d="M25.0784 145.217C25.0784 145.217 34.3882 145.778 36.6838 143.254C38.9795 140.73 40.735 137.207 38.5744 134.691C36.4137 132.183 30.4323 125.311 21.7501 130.08C13.0679 134.848 13.0679 140.202 13.608 146.216C14.1482 152.23 15.0934 156.849 19.0096 158.813C22.9257 160.776 25.4915 158.111 25.0863 156.569C24.6733 155.026 21.1623 148.723 25.0784 145.217Z" fill="#474764"></path><path d="M33.141 179.676C33.292 179.239 33.3793 178.752 33.3793 178.224C33.3793 177.069 32.9742 176.063 32.3785 175.493C32.6009 175.089 32.7439 174.635 32.7439 174.14C32.7439 173.175 32.2593 172.334 31.5285 171.855C32.0448 171.261 32.3785 170.478 32.3785 169.603C32.3785 167.747 30.9248 166.237 29.1375 166.237C29.1216 166.237 29.1137 166.237 29.0978 166.237C29.2885 165.784 29.4076 165.272 29.4076 164.728C29.4076 163.111 28.4703 161.758 27.2232 161.461C27.4059 161.114 27.5171 160.735 27.5171 160.331C27.5171 158.887 26.2302 157.724 24.6336 157.724C23.0449 157.724 21.7581 158.895 21.7581 160.331C21.7581 161.708 22.9496 162.83 24.4429 162.921C24.1729 163.441 24.0061 164.059 24.0061 164.728C24.0061 166.394 24.999 167.764 26.3017 168.003C26.0555 168.481 25.8966 169.017 25.8966 169.595C25.8966 171.006 26.7307 172.21 27.9142 172.705C27.668 173.117 27.5171 173.604 27.5171 174.132C27.5171 175.361 28.3114 176.393 29.3917 176.723C29.2329 177.168 29.1375 177.671 29.1375 178.216C29.1375 179.593 29.7095 180.757 30.5038 181.219C30.2496 181.738 30.0987 182.357 30.0987 183.017C30.0987 184.898 31.2823 186.416 32.7439 186.416C34.2055 186.416 35.389 184.898 35.389 183.017C35.389 181.326 34.412 179.932 33.141 179.676Z" fill="#474764"></path><path d="M34.0307 180.039C34.3007 180.715 33.3078 180.996 32.156 181.408C31.0042 181.813 30.1543 182.266 29.8683 181.516C29.5347 180.658 30.5911 180.559 31.7429 180.146C32.8948 179.742 33.6256 179.008 34.0307 180.039Z" fill="#FEA815"></path><path d="M91.5098 180.996L26.1667 234.222C24.5065 235.575 22.1075 235.27 20.8128 233.554L7.15791 215.471C5.85518 213.747 6.14909 211.255 7.80133 209.91L73.1444 156.684C74.8046 155.331 77.2035 155.637 78.4983 157.361L92.1532 175.444C93.4559 177.16 93.1699 179.651 91.5098 180.996Z" fill="#EDEDF0"></path><path d="M28.1456 198.998L11.4749 212.576L24.5483 229.889L41.219 216.312L28.1456 198.998Z" fill="white"></path><path d="M26.0395 209.209C27.0165 210.505 26.7941 212.369 25.5549 213.384C24.3078 214.398 22.5126 214.167 21.5355 212.88C20.5585 211.585 20.7809 209.721 22.0201 208.706C23.2672 207.691 25.0624 207.914 26.0395 209.209Z" fill="#595CEC"></path><path d="M33.8082 214.803C35.0077 216.386 33.0933 218.201 30.6229 220.214C28.1604 222.227 26.1189 223.63 24.983 222.128C23.1322 219.678 24.0616 216.626 26.524 214.621C28.9865 212.608 31.9574 212.361 33.8082 214.803Z" fill="#595CEC"></path><path d="M55.0688 177.04L31.3128 196.39L32.7932 198.35L56.5492 179L55.0688 177.04Z" fill="white"></path><path d="M42.2533 195.76L35.1909 201.514L36.6715 203.474L43.7339 197.721L42.2533 195.76Z" fill="white"></path><path d="M65.5145 176.806L45.9897 192.712L47.4703 194.673L66.9951 178.766L65.5145 176.806Z" fill="white"></path><path d="M49.9846 206.008L42.9213 211.761L44.4016 213.721L51.465 207.968L49.9846 206.008Z" fill="white"></path><path d="M73.2528 187.051L53.728 202.957L55.2086 204.917L74.7335 189.011L73.2528 187.051Z" fill="white"></path><path d="M40.9536 205.101L39.0664 206.639L40.5475 208.599L42.4348 207.061L40.9536 205.101Z" fill="white"></path><path d="M43.8198 202.755L41.9323 204.293L43.4129 206.253L45.3004 204.715L43.8198 202.755Z" fill="white"></path><path d="M46.7744 200.35L44.8872 201.888L46.3681 203.848L48.2553 202.31L46.7744 200.35Z" fill="white"></path><path d="M49.7497 197.921L47.8622 199.458L49.3428 201.419L51.2303 199.881L49.7497 197.921Z" fill="white"></path><path d="M52.7209 195.504L50.8334 197.041L52.3141 199.001L54.2015 197.464L52.7209 195.504Z" fill="white"></path><path d="M55.6904 193.089L53.8029 194.627L55.2835 196.587L57.171 195.049L55.6904 193.089Z" fill="white"></path><path d="M58.6553 190.675L56.7681 192.213L58.2489 194.173L60.1362 192.635L58.6553 190.675Z" fill="white"></path><path d="M61.6344 188.238L59.7469 189.776L61.2275 191.736L63.115 190.199L61.6344 188.238Z" fill="white"></path><path d="M64.6041 185.824L62.7166 187.362L64.1972 189.322L66.0847 187.784L64.6041 185.824Z" fill="white"></path><path d="M73.0029 162.433L65.4467 168.589L71.3741 176.437L78.9303 170.281L73.0029 162.433Z" fill="#595CEC"></path><path d="M80.0861 171.992L72.529 178.147L78.4554 185.995L86.0126 179.841L80.0861 171.992Z" fill="#595CEC"></path><path d="M80.7463 177.844C81.3977 178.702 81.2467 179.94 80.4206 180.616C79.5945 181.293 78.403 181.136 77.7516 180.278C77.1003 179.42 77.2512 178.183 78.0773 177.506C78.9034 176.838 80.1029 176.986 80.7463 177.844Z" fill="white"></path><path d="M70.9599 173.505L70.7852 173.472L71.365 169.933L73.2635 169.941L73.6528 166.246L73.8354 166.27L73.4303 170.131L71.5239 170.123L70.9599 173.505Z" fill="white"></path><path d="M73.8831 165.14L73.0967 166.229L74.3994 166.394L73.8831 165.14Z" fill="white"></path><path d="M80.2776 192.669C80.2776 194.434 79.2212 195.49 77.5213 195.49C75.8214 195.49 74.6378 195.177 74.6378 193.411C74.6378 191.646 75.8214 189.856 77.5213 189.856C79.2212 189.856 80.2776 190.904 80.2776 192.669Z" fill="#FFC8B7"></path><path d="M12.8375 186.82C13.3141 180.344 12.7819 164.95 19.0811 165.726C25.3882 166.501 23.8154 179.511 22.6 182.208C21.3767 184.906 21.3847 190.095 21.2178 191.217C21.051 192.339 31.1631 205.274 32.3785 205.819C33.6017 206.363 37.645 205.761 38.058 206.883C38.4711 207.997 37.8992 208.846 36.9062 208.855C35.9133 208.863 37.637 212.072 39.2178 212.196C40.8065 212.319 42.4587 216.089 40.4411 216.807C38.4234 217.533 33.3634 214.217 31.592 211.008C29.8286 207.799 16.6424 198.551 15.2761 196.455C13.9098 194.385 12.6389 189.485 12.8375 186.82Z" fill="#FFC8B7"></path><path d="M116.851 239.317L88.749 252.115L101.072 281.3L129.174 268.502L116.851 239.317Z" fill="#DEDEFB"></path><path d="M116.857 239.312L88.7534 252.107L93.9881 245.186L122.092 232.382L116.857 239.312Z" fill="#595CEC"></path><path d="M116.857 239.312L129.186 268.499L134.42 261.569L122.092 232.382L116.857 239.312Z" fill="#7779F8"></path><path d="M157.433 276.848L123.157 266.511C121.639 266.057 120.774 264.407 121.21 262.831L132.863 221.163C133.3 219.587 134.889 218.688 136.406 219.142L170.682 229.478C172.2 229.932 173.065 231.582 172.629 233.158L160.975 274.826C160.539 276.402 158.95 277.309 157.433 276.848Z" fill="#595CEC"></path><path d="M153.143 257.197L127.97 249.605L127.463 251.419L152.635 259.011L153.143 257.197Z" fill="#DEDEFB"></path><path d="M160.621 263.003L142.725 257.605L142.218 259.42L160.114 264.817L160.621 263.003Z" fill="#DEDEFB"></path><path d="M134.82 255.226L127.047 252.882L126.539 254.696L134.312 257.04L134.82 255.226Z" fill="#DEDEFB"></path><path d="M127.952 256.989L126.06 256.418L125.553 258.232L127.444 258.803L127.952 256.989Z" fill="#DEDEFB"></path><path d="M130.48 257.775L128.588 257.204L128.08 259.018L129.972 259.589L130.48 257.775Z" fill="#DEDEFB"></path><path d="M132.979 258.542L131.087 257.971L130.58 259.786L132.472 260.356L132.979 258.542Z" fill="#DEDEFB"></path><path d="M137.655 259.936L133.605 258.714L133.097 260.528L137.148 261.75L137.655 259.936Z" fill="#DEDEFB"></path><path d="M140.526 260.818L138.634 260.248L138.127 262.062L140.019 262.632L140.526 260.818Z" fill="#DEDEFB"></path><path d="M138.508 256.346L136.616 255.775L136.109 257.589L138.001 258.16L138.508 256.346Z" fill="#DEDEFB"></path><path d="M141.026 257.105L139.134 256.534L138.627 258.349L140.519 258.919L141.026 257.105Z" fill="#DEDEFB"></path><path d="M149.403 263.469L141.157 260.982L140.649 262.796L148.895 265.283L149.403 263.469Z" fill="#DEDEFB"></path><path d="M126.66 261.825C126.755 261.297 126.509 260.819 126.072 260.687C125.778 260.596 125.468 260.678 125.246 260.893C125.174 260.579 124.96 260.348 124.674 260.258C124.237 260.126 123.784 260.39 123.593 260.893C123.585 260.918 123.538 261.033 123.53 261.239C123.514 261.536 123.593 261.842 123.752 262.106L124.547 263.442L125.921 262.757C126.191 262.617 126.413 262.411 126.556 262.147C126.636 261.974 126.66 261.85 126.66 261.825ZM124.253 260.769C123.999 260.876 123.887 261.182 123.991 261.446C124.006 261.479 123.991 261.512 123.959 261.528C123.927 261.545 123.887 261.528 123.879 261.495C123.744 261.173 123.895 260.794 124.205 260.654C124.237 260.637 124.277 260.654 124.285 260.687C124.3 260.711 124.285 260.753 124.253 260.769Z" fill="#F96E6E"></path><path d="M128.947 262.782C129.043 262.807 129.13 262.807 129.209 262.774C129.289 262.741 129.352 262.666 129.376 262.559C129.4 262.477 129.392 262.402 129.352 262.328C129.313 262.254 129.249 262.204 129.162 262.171C129.098 262.155 129.043 262.147 129.003 262.155C128.955 262.163 128.916 262.171 128.892 262.196C128.86 262.221 128.828 262.246 128.796 262.287C128.765 262.328 128.733 262.361 128.701 262.402C128.685 262.419 128.661 262.435 128.63 262.435C128.598 262.444 128.566 262.435 128.534 262.427C128.495 262.419 128.463 262.386 128.439 262.345C128.415 262.303 128.407 262.246 128.423 262.196C128.439 262.138 128.471 262.089 128.518 262.039C128.566 261.99 128.63 261.949 128.709 261.907C128.788 261.874 128.876 261.85 128.971 261.841C129.074 261.833 129.178 261.85 129.289 261.883C129.384 261.916 129.472 261.949 129.543 262.006C129.615 262.064 129.678 262.122 129.718 262.188C129.766 262.254 129.789 262.328 129.805 262.411C129.813 262.485 129.813 262.567 129.789 262.65C129.758 262.757 129.71 262.84 129.646 262.897C129.583 262.955 129.495 263.013 129.392 263.062C129.456 263.128 129.511 263.203 129.551 263.277C129.591 263.351 129.615 263.425 129.623 263.5C129.63 263.574 129.623 263.656 129.599 263.739C129.575 263.838 129.527 263.92 129.464 264.003C129.4 264.077 129.329 264.143 129.233 264.193C129.146 264.242 129.043 264.267 128.931 264.283C128.82 264.292 128.709 264.283 128.59 264.242C128.471 264.209 128.367 264.151 128.28 264.077C128.193 264.003 128.137 263.92 128.089 263.838C128.05 263.755 128.018 263.665 128.01 263.582C128.002 263.5 128.002 263.434 128.01 263.392C128.026 263.335 128.058 263.285 128.105 263.26C128.153 263.236 128.209 263.227 128.264 263.244C128.296 263.252 128.32 263.269 128.336 263.293C128.36 263.318 128.367 263.343 128.367 263.368C128.375 263.533 128.407 263.656 128.447 263.747C128.487 263.838 128.558 263.896 128.669 263.929C128.733 263.945 128.796 263.953 128.868 263.937C128.931 263.92 128.995 263.887 129.051 263.838C129.106 263.788 129.146 263.722 129.17 263.632C129.202 263.508 129.202 263.401 129.154 263.31C129.106 263.219 129.027 263.161 128.916 263.12C128.892 263.112 128.86 263.104 128.82 263.095C128.773 263.087 128.749 263.079 128.733 263.079C128.677 263.062 128.638 263.038 128.614 262.996C128.59 262.955 128.59 262.914 128.606 262.864C128.622 262.815 128.645 262.782 128.693 262.757C128.741 262.741 128.796 262.741 128.868 262.757L128.947 262.782Z" fill="#FAE9EF"></path><path d="M130.465 263.392C130.56 263.326 130.647 263.285 130.743 263.269C130.838 263.252 130.933 263.26 131.029 263.285C131.124 263.318 131.211 263.359 131.283 263.425C131.354 263.483 131.41 263.566 131.45 263.648C131.489 263.739 131.513 263.83 131.521 263.937C131.529 264.044 131.521 264.143 131.489 264.242C131.45 264.391 131.378 264.514 131.275 264.613C131.179 264.712 131.06 264.778 130.925 264.811C130.79 264.844 130.647 264.836 130.496 264.795C130.33 264.745 130.194 264.655 130.091 264.531C129.996 264.407 129.932 264.25 129.916 264.061C129.901 263.871 129.924 263.656 129.988 263.409C130.044 263.211 130.115 263.038 130.194 262.897C130.274 262.749 130.369 262.642 130.472 262.559C130.576 262.477 130.687 262.427 130.806 262.411C130.925 262.386 131.052 262.403 131.187 262.444C131.315 262.485 131.426 262.543 131.505 262.625C131.593 262.708 131.648 262.798 131.672 262.889C131.704 262.98 131.704 263.062 131.688 263.137C131.672 263.178 131.648 263.211 131.608 263.236C131.569 263.26 131.521 263.269 131.473 263.252C131.434 263.236 131.394 263.211 131.37 263.178C131.338 263.137 131.322 263.095 131.322 263.038C131.315 262.972 131.291 262.906 131.251 262.848C131.211 262.799 131.156 262.757 131.092 262.741C131.036 262.724 130.981 262.724 130.917 262.741C130.854 262.757 130.798 262.79 130.743 262.831C130.655 262.93 130.552 263.112 130.465 263.392ZM130.6 264.498C130.703 264.531 130.798 264.514 130.886 264.448C130.981 264.382 131.044 264.275 131.084 264.135C131.108 264.036 131.116 263.953 131.108 263.871C131.092 263.797 131.068 263.731 131.021 263.673C130.973 263.623 130.925 263.582 130.854 263.566C130.79 263.549 130.727 263.549 130.663 263.566C130.6 263.582 130.536 263.615 130.48 263.673C130.425 263.731 130.385 263.797 130.361 263.887C130.322 264.028 130.322 264.16 130.369 264.275C130.417 264.391 130.488 264.465 130.6 264.498Z" fill="#FAE9EF"></path><path d="M156.011 272.219L156.408 270.784C156.09 270.908 155.892 270.966 155.804 270.933C155.765 270.916 155.733 270.891 155.709 270.842C155.685 270.801 155.677 270.751 155.693 270.702C155.709 270.652 155.733 270.611 155.773 270.603C155.812 270.586 155.876 270.57 155.971 270.553C156.106 270.528 156.225 270.495 156.321 270.454C156.416 270.413 156.495 270.355 156.575 270.289C156.654 270.223 156.702 270.182 156.726 270.174C156.75 270.157 156.781 270.157 156.829 270.174C156.885 270.19 156.916 270.223 156.94 270.281C156.964 270.33 156.964 270.396 156.94 270.471L156.432 272.277C156.376 272.492 156.273 272.574 156.138 272.533C156.074 272.516 156.035 272.475 156.011 272.426C155.987 272.376 155.987 272.31 156.011 272.219Z" fill="#FAE9EF"></path><path d="M157.607 271.073C157.639 270.966 157.695 270.875 157.774 270.801C157.854 270.726 157.957 270.677 158.076 270.652C158.195 270.627 158.33 270.636 158.473 270.685C158.592 270.718 158.696 270.768 158.775 270.825C158.855 270.883 158.918 270.957 158.966 271.032C159.013 271.106 159.037 271.188 159.045 271.263C159.053 271.345 159.045 271.428 159.021 271.502C158.99 271.601 158.942 271.691 158.87 271.757C158.799 271.823 158.704 271.865 158.585 271.889C158.664 271.947 158.72 272.021 158.759 272.087C158.799 272.162 158.823 272.236 158.831 272.318C158.839 272.401 158.831 272.492 158.807 272.574C158.767 272.706 158.704 272.813 158.616 272.904C158.521 272.995 158.41 273.053 158.275 273.077C158.14 273.102 157.989 273.094 157.83 273.044C157.663 272.995 157.528 272.921 157.425 272.822C157.321 272.723 157.258 272.615 157.226 272.492C157.194 272.368 157.194 272.236 157.234 272.104C157.314 271.824 157.496 271.667 157.782 271.642C157.607 271.477 157.552 271.287 157.607 271.073ZM158.402 272.442C158.426 272.36 158.426 272.285 158.41 272.211C158.394 272.137 158.362 272.079 158.314 272.03C158.267 271.98 158.203 271.947 158.132 271.923C158.028 271.89 157.933 271.898 157.846 271.955C157.758 272.005 157.695 272.096 157.655 272.219C157.631 272.302 157.631 272.376 157.647 272.45C157.663 272.525 157.695 272.582 157.743 272.632C157.79 272.681 157.846 272.723 157.917 272.739C157.989 272.764 158.06 272.764 158.124 272.747C158.187 272.731 158.251 272.698 158.299 272.64C158.346 272.591 158.386 272.525 158.402 272.442ZM158.402 270.982C158.306 270.949 158.219 270.957 158.148 271.007C158.076 271.048 158.021 271.122 157.997 271.221C157.973 271.312 157.981 271.395 158.021 271.469C158.06 271.543 158.132 271.601 158.227 271.625C158.275 271.642 158.322 271.642 158.362 271.642C158.402 271.642 158.442 271.626 158.481 271.609C158.513 271.593 158.545 271.56 158.577 271.527C158.6 271.494 158.624 271.452 158.632 271.403C158.648 271.337 158.648 271.279 158.64 271.221C158.624 271.164 158.6 271.114 158.561 271.073C158.521 271.032 158.465 270.999 158.402 270.982Z" fill="#FAE9EF"></path><path d="M142.65 268.194L143.047 266.758C142.729 266.89 142.531 266.94 142.443 266.907C142.404 266.89 142.372 266.865 142.348 266.816C142.324 266.775 142.316 266.725 142.332 266.676C142.348 266.618 142.372 266.585 142.412 266.568C142.451 266.552 142.515 266.535 142.61 266.519C142.745 266.494 142.864 266.461 142.96 266.42C143.055 266.379 143.134 266.321 143.214 266.255C143.293 266.189 143.349 266.148 143.365 266.139C143.389 266.123 143.42 266.123 143.468 266.139C143.524 266.156 143.555 266.189 143.579 266.247C143.603 266.296 143.595 266.362 143.579 266.436L143.079 268.243C143.015 268.458 142.92 268.54 142.785 268.499C142.721 268.482 142.682 268.441 142.658 268.392C142.626 268.342 142.626 268.276 142.65 268.194Z" fill="#FAE9EF"></path><path d="M144.358 268.54L145.152 268.779C145.231 268.804 145.287 268.837 145.319 268.887C145.351 268.936 145.359 268.986 145.343 269.043C145.327 269.093 145.303 269.134 145.255 269.159C145.216 269.184 145.16 269.192 145.088 269.167L143.968 268.829C143.889 268.804 143.841 268.763 143.81 268.713C143.778 268.656 143.77 268.598 143.786 268.54C143.794 268.499 143.825 268.458 143.865 268.4C143.913 268.342 143.953 268.309 144 268.276C144.175 268.169 144.334 268.086 144.469 268.012C144.604 267.938 144.699 267.897 144.755 267.88C144.858 267.847 144.938 267.806 145.017 267.756C145.088 267.715 145.152 267.657 145.2 267.608C145.247 267.55 145.279 267.492 145.295 267.435C145.311 267.369 145.319 267.303 145.303 267.237C145.287 267.171 145.255 267.121 145.208 267.072C145.16 267.031 145.112 266.998 145.049 266.973C144.914 266.932 144.795 266.965 144.683 267.064C144.667 267.08 144.644 267.113 144.596 267.179C144.556 267.245 144.509 267.286 144.469 267.319C144.429 267.344 144.381 267.352 144.326 267.336C144.278 267.319 144.239 267.294 144.215 267.245C144.191 267.204 144.191 267.146 144.207 267.088C144.231 267.014 144.262 266.948 144.318 266.874C144.374 266.808 144.437 266.75 144.517 266.701C144.596 266.659 144.691 266.626 144.795 266.618C144.898 266.61 145.017 266.618 145.144 266.659C145.295 266.709 145.422 266.775 145.517 266.857C145.581 266.915 145.629 266.973 145.668 267.055C145.708 267.13 145.732 267.212 145.74 267.294C145.748 267.385 145.74 267.468 145.716 267.55C145.676 267.682 145.613 267.789 145.525 267.88C145.43 267.971 145.343 268.037 145.263 268.078C145.184 268.119 145.049 268.177 144.858 268.26C144.667 268.342 144.54 268.408 144.461 268.466C144.429 268.482 144.397 268.507 144.358 268.54Z" fill="#FAE9EF"></path><path d="M147.384 267.773L146.661 267.559L146.431 268.045C146.598 268.012 146.741 268.012 146.86 268.045C146.955 268.078 147.043 268.119 147.114 268.185C147.186 268.251 147.249 268.326 147.289 268.408C147.337 268.491 147.36 268.59 147.376 268.689C147.384 268.788 147.376 268.895 147.352 269.002C147.313 269.151 147.241 269.283 147.138 269.39C147.035 269.497 146.916 269.563 146.773 269.604C146.63 269.637 146.471 269.637 146.312 269.588C146.129 269.53 145.994 269.456 145.899 269.349C145.803 269.25 145.748 269.142 145.724 269.035C145.7 268.928 145.7 268.845 145.716 268.779C145.724 268.738 145.756 268.705 145.795 268.68C145.835 268.656 145.883 268.647 145.938 268.664C146.026 268.689 146.073 268.763 146.081 268.87C146.097 268.977 146.129 269.068 146.185 269.134C146.24 269.208 146.312 269.258 146.391 269.283C146.471 269.307 146.542 269.307 146.614 269.283C146.685 269.258 146.749 269.217 146.796 269.151C146.852 269.085 146.892 269.01 146.916 268.911C146.947 268.812 146.947 268.722 146.939 268.639C146.923 268.557 146.892 268.491 146.844 268.441C146.796 268.392 146.741 268.35 146.669 268.334C146.582 268.309 146.518 268.301 146.471 268.309C146.431 268.317 146.359 268.342 146.28 268.375C146.193 268.408 146.129 268.416 146.081 268.408C146.034 268.392 145.994 268.359 145.962 268.309C145.931 268.26 145.931 268.21 145.938 268.169C145.938 268.161 145.954 268.128 145.986 268.07L146.328 267.352C146.367 267.27 146.415 267.212 146.463 267.179C146.51 267.146 146.582 267.146 146.669 267.171L147.472 267.41C147.63 267.46 147.694 267.542 147.654 267.666C147.638 267.724 147.607 267.756 147.559 267.781C147.519 267.798 147.456 267.798 147.384 267.773Z" fill="#FAE9EF"></path><path d="M154.192 269.167L151.936 268.482C151.697 268.408 151.451 268.548 151.38 268.796L150.983 270.231C150.911 270.479 151.046 270.735 151.284 270.809L151.102 271.461L152.182 271.081L153.54 271.494C153.779 271.568 154.025 271.419 154.096 271.18L154.502 269.745C154.565 269.497 154.43 269.241 154.192 269.167ZM153.588 270.949L151.531 270.33L151.602 270.091L153.66 270.71L153.588 270.949ZM153.731 270.429L151.674 269.811L151.745 269.563L153.803 270.182L153.731 270.429ZM153.874 269.91L151.817 269.291L151.888 269.052L153.945 269.67L153.874 269.91Z" fill="#F96E6E"></path><path d="M139.012 264.589C138.051 264.3 137.026 264.605 136.144 265.339C136.51 266.445 137.216 267.278 138.178 267.567C139.139 267.855 140.164 267.55 141.045 266.816C140.68 265.711 139.973 264.877 139.012 264.589ZM138.344 267.278C137.645 267.113 137.24 266.354 137.487 265.653C137.685 265.075 138.281 264.737 138.861 264.869C139.56 265.034 139.965 265.793 139.719 266.494C139.512 267.072 138.916 267.41 138.344 267.278ZM138.424 266.898C137.947 266.791 137.669 266.271 137.836 265.793C137.971 265.397 138.376 265.166 138.773 265.257C139.25 265.364 139.528 265.884 139.361 266.362C139.226 266.758 138.813 266.989 138.424 266.898Z" fill="#F96E6E"></path><path d="M161.873 243.701C159.84 250.977 152.516 255.159 145.51 253.048C138.503 250.936 134.476 243.33 136.51 236.053C138.543 228.777 145.867 224.595 152.873 226.707C159.879 228.819 163.907 236.433 161.873 243.701Z" fill="white"></path><path d="M154.025 235.979C153.461 238.009 151.412 239.18 149.457 238.586C147.503 237.992 146.375 235.872 146.947 233.843C147.511 231.813 149.561 230.642 151.515 231.236C153.469 231.821 154.589 233.95 154.025 235.979Z" fill="#DEDEFB"></path><path d="M153.755 248.667C153.119 250.952 150.085 250.284 146.487 249.203C142.888 248.114 140.164 247.05 140.767 244.88C141.752 241.35 145.247 240.17 148.838 241.259C152.444 242.34 154.748 245.136 153.755 248.667Z" fill="#DEDEFB"></path><path d="M82.3589 190.689L128.336 267.633C129.241 269.151 128.796 271.147 127.327 272.096L119.796 276.946C118.335 277.887 116.413 277.425 115.499 275.899L69.5222 198.963C68.6166 197.445 69.0615 195.449 70.531 194.5L78.0614 189.65C79.523 188.701 81.4454 189.171 82.3589 190.689Z" fill="#474764"></path><path d="M81.9855 192.372L126.715 267.228C127.382 268.342 127.049 269.802 125.976 270.495L119.018 274.975C117.946 275.668 116.54 275.321 115.872 274.208L71.1426 199.351C70.4754 198.237 70.809 196.777 71.8814 196.084L78.8399 191.605C79.9122 190.92 81.3182 191.266 81.9855 192.372Z" fill="#97FCDE"></path><path d="M93.2494 213.309L125.103 266.626C125.849 267.88 125.484 269.522 124.277 270.306L119.606 273.317C118.398 274.092 116.818 273.713 116.063 272.459L84.2017 219.134C83.455 217.88 83.8204 216.238 85.0279 215.454L89.6986 212.443C90.914 211.668 92.4947 212.055 93.2494 213.309Z" fill="white"></path><path d="M82.1444 197.874L81.3739 201.009C80.5239 200.877 79.6581 201.067 78.9193 201.537C77.2035 202.643 76.6713 204.994 77.7357 206.776C78.8002 208.558 81.0641 209.11 82.7798 208.005C84.4956 206.899 85.0279 204.548 83.9634 202.766C83.5663 202.098 82.9864 201.587 82.2953 201.281L83.0738 198.122C83.1055 197.99 83.0896 197.85 83.0182 197.742C82.9546 197.635 82.8513 197.553 82.7322 197.52C82.4701 197.445 82.2079 197.61 82.1444 197.874ZM78.5539 206.248C77.7675 204.928 78.1567 203.195 79.4277 202.379C80.6987 201.562 82.3668 201.966 83.1532 203.286C83.9396 204.606 83.5504 206.338 82.2794 207.155C81.0164 207.972 79.3403 207.568 78.5539 206.248Z" fill="#474764"></path><path d="M119.407 265.273C119.225 265.389 119.129 265.562 119.129 265.777C119.129 265.999 119.193 266.346 119.328 266.824C119.463 267.303 119.55 267.699 119.59 268.004C119.693 268.837 119.495 269.415 119.01 269.728C118.756 269.893 118.478 269.951 118.176 269.901C117.874 269.852 117.564 269.703 117.262 269.456C116.953 269.2 116.683 268.87 116.436 268.466C116.19 268.053 116.039 267.657 115.968 267.253C115.896 266.857 115.92 266.494 116.039 266.181C116.158 265.859 116.357 265.612 116.635 265.43L117.342 266.61C117.127 266.75 117.008 266.94 116.984 267.179C116.961 267.418 117.04 267.69 117.223 267.987C117.398 268.276 117.58 268.466 117.771 268.565C117.969 268.664 118.144 268.656 118.311 268.548C118.462 268.449 118.533 268.276 118.526 268.02C118.518 267.765 118.446 267.426 118.319 267.006C118.081 266.23 118.001 265.603 118.057 265.141C118.12 264.679 118.335 264.325 118.7 264.094C119.105 263.83 119.534 263.813 119.995 264.036C120.448 264.259 120.869 264.688 121.242 265.323C121.504 265.76 121.679 266.205 121.758 266.651C121.846 267.096 121.822 267.492 121.711 267.831C121.592 268.169 121.385 268.433 121.083 268.631L120.376 267.451C120.893 267.113 120.932 266.577 120.48 265.818C120.313 265.537 120.138 265.348 119.947 265.249C119.749 265.158 119.574 265.166 119.407 265.273Z" fill="#B3CBF9"></path><path d="M118.033 259.969C118.406 260.596 118.549 261.198 118.47 261.792C118.39 262.386 118.089 262.848 117.564 263.186L117.477 263.244C117.127 263.467 116.762 263.59 116.389 263.599C116.015 263.615 115.658 263.516 115.332 263.31C114.999 263.104 114.721 262.807 114.49 262.419C114.141 261.833 114.022 261.281 114.125 260.753C114.228 260.225 114.554 259.779 115.11 259.424L115.491 259.177L117.112 261.883C117.318 261.701 117.437 261.47 117.461 261.198C117.485 260.926 117.421 260.645 117.247 260.365C116.984 259.928 116.651 259.672 116.246 259.589L116.428 258.698C116.73 258.74 117.024 258.872 117.302 259.094C117.572 259.325 117.819 259.614 118.033 259.969ZM115.245 261.949C115.38 262.171 115.555 262.32 115.761 262.378C115.968 262.435 116.206 262.411 116.46 262.303L115.515 260.72L115.443 260.769C115.237 260.909 115.118 261.083 115.086 261.281C115.046 261.479 115.102 261.701 115.245 261.949Z" fill="#B3CBF9"></path><path d="M114.705 254.549C114.649 254.656 114.57 254.763 114.458 254.862C114.872 254.978 115.213 255.25 115.475 255.696C115.721 256.108 115.833 256.52 115.801 256.925C115.769 257.329 115.602 257.626 115.3 257.816C114.927 258.055 114.546 258.071 114.149 257.865C113.751 257.659 113.362 257.238 112.981 256.611L112.671 256.092L112.473 256.224C112.314 256.331 112.21 256.463 112.179 256.628C112.139 256.793 112.187 256.982 112.322 257.197C112.433 257.387 112.56 257.51 112.703 257.576C112.846 257.634 112.981 257.626 113.108 257.543L113.783 258.682C113.585 258.814 113.346 258.855 113.084 258.814C112.822 258.773 112.56 258.641 112.298 258.434C112.036 258.22 111.797 257.939 111.591 257.593C111.281 257.073 111.138 256.586 111.17 256.133C111.202 255.687 111.416 255.333 111.805 255.085L113.315 254.112C113.64 253.897 113.863 253.674 113.966 253.46L114.022 253.427L114.705 254.549ZM114.617 255.902C114.514 255.737 114.395 255.597 114.252 255.498C114.109 255.399 113.958 255.341 113.815 255.341L113.211 255.729L113.465 256.149C113.807 256.719 114.149 256.916 114.49 256.743L114.546 256.71C114.665 256.636 114.729 256.52 114.744 256.372C114.768 256.24 114.721 256.075 114.617 255.902Z" fill="#B3CBF9"></path><path d="M109.2 251.389C109.271 251.554 109.351 251.694 109.414 251.818C109.669 252.247 109.962 252.453 110.28 252.437L112.56 250.969L113.235 252.107L109.748 254.359L109.105 253.287L109.502 252.99C109.049 252.965 108.699 252.759 108.453 252.354C108.382 252.231 108.326 252.099 108.286 251.975L109.2 251.389Z" fill="#B3CBF9"></path><path d="M109.422 247.306C109.295 247.1 109.144 246.959 108.977 246.885C108.803 246.819 108.636 246.827 108.477 246.926L107.842 245.862C108.08 245.714 108.342 245.648 108.636 245.681C108.922 245.705 109.208 245.821 109.47 246.019C109.74 246.217 109.97 246.481 110.161 246.803C110.526 247.413 110.654 247.99 110.542 248.551C110.439 249.104 110.105 249.566 109.541 249.929L109.478 249.97C108.938 250.317 108.406 250.416 107.881 250.276C107.349 250.135 106.904 249.756 106.547 249.154C106.229 248.626 106.102 248.114 106.158 247.636C106.213 247.157 106.443 246.778 106.857 246.506L107.492 247.57C107.317 247.693 107.206 247.858 107.174 248.056C107.142 248.263 107.182 248.469 107.317 248.683C107.476 248.947 107.675 249.096 107.913 249.129C108.151 249.162 108.445 249.063 108.803 248.832L108.898 248.766C109.255 248.535 109.478 248.304 109.557 248.065C109.629 247.834 109.589 247.578 109.422 247.306Z" fill="#B3CBF9"></path><path d="M104.529 244.724C104.053 244.616 103.679 244.328 103.409 243.874C102.861 242.95 103.02 242.199 103.894 241.622L106.126 240.178L106.801 241.317L104.593 242.744C104.394 242.876 104.275 243.024 104.243 243.189C104.211 243.354 104.267 243.56 104.41 243.808C104.609 244.138 104.855 244.311 105.157 244.328L107.635 242.727L108.31 243.866L103.353 247.058L102.678 245.92L104.529 244.724Z" fill="#B3CBF9"></path><path d="M99.9854 298.684C104.132 298.684 107.492 302.174 107.492 306.48C107.492 310.786 104.132 314.276 99.9854 314.276C95.8389 314.276 92.4788 310.786 92.4788 306.48C92.4788 302.174 95.8389 298.684 99.9854 298.684Z" fill="#F96E6E"></path><path d="M145.049 298.684C149.195 298.684 152.555 302.174 152.555 306.48C152.555 310.786 149.195 314.276 145.049 314.276C140.902 314.276 137.542 310.786 137.542 306.48C137.534 302.174 140.902 298.684 145.049 298.684Z" fill="#F96E6E"></path><path d="M173.208 283.084V224.595H83.0896V205.101C83.0896 204.02 82.2476 203.154 81.215 203.154H71.8258C70.7931 203.154 69.9511 204.029 69.9511 205.101C69.9511 206.182 70.7931 207.048 71.8258 207.048H79.3324V224.595V226.542V281.137V283.084V296.729C79.3324 297.81 80.1744 298.676 81.207 298.676H161.937C162.969 298.676 163.811 297.801 163.811 296.729C163.811 295.648 162.969 294.782 161.937 294.782H83.0896V283.084H173.208ZM83.0896 228.497H94.3535V279.19H83.0896V228.497ZM139.417 279.19H128.153V228.497H139.417V279.19ZM143.166 228.497H154.43V279.19H143.166V228.497ZM124.396 279.19H113.132V228.497H124.396V279.19ZM109.375 279.19H98.1108V228.497H109.375V279.19ZM169.451 279.19H158.187V228.497H169.451V279.19Z" fill="#474764"></path><path d="M145.049 309.136C143.881 309.136 142.872 308.278 142.642 307.09L141.021 298.692H149.068L147.448 307.09C147.225 308.278 146.217 309.136 145.049 309.136Z" fill="#474764"></path><path d="M99.9854 309.136C98.8177 309.136 97.8089 308.278 97.5785 307.09L95.9581 298.692H104.005L102.384 307.09C102.17 308.278 101.161 309.136 99.9854 309.136Z" fill="#474764"></path><path d="M333.095 35.325L386.34 94.2103L386.983 93.4101L333.905 34.7805L333.992 34.5413L328.511 35.1187L363.328 110.437L364.265 110.083L329.79 35.6797L333.095 35.325Z" fill="#474764"></path><path d="M385.453 80.9794L354.337 107.389L371.79 129.567L402.906 103.157L385.453 80.9794Z" fill="#C0C1FF"></path><path d="M369.055 105.083C370.66 107.121 370.374 110.132 368.404 111.798C366.442 113.465 363.542 113.168 361.938 111.122C360.333 109.076 360.619 106.073 362.589 104.407C364.559 102.74 367.45 103.046 369.055 105.083Z" fill="#C5FFED"></path><path d="M372.558 124.074C372.439 124.173 372.288 124.222 372.129 124.198C371.827 124.148 371.629 123.859 371.676 123.546L373.623 110.932L383.337 110.388L382.082 93.1461L393.211 96.5532C393.505 96.644 393.664 96.9575 393.584 97.2627C393.497 97.5679 393.195 97.7329 392.901 97.6422L383.29 94.7053L384.513 111.468L374.568 112.021L372.757 123.727C372.725 123.868 372.653 123.991 372.558 124.074Z" fill="#C5FFED"></path><path d="M328.718 28.1314C328.368 28.1314 328.09 28.4201 328.09 28.7831V32.8996C328.09 33.7988 327.375 34.5165 326.518 34.5C326.327 34.5 322.315 34.533 322.172 34.5248C319.106 34.4588 317.621 31.9757 317.557 31.8602C317.383 31.5467 316.993 31.4477 316.691 31.6292C316.39 31.8107 316.294 32.2149 316.469 32.5284C316.541 32.6604 318.352 35.7457 322.141 35.8282C322.705 35.8447 327.511 35.8117 328.718 35.82C329.973 35.8282 331.506 35.8282 333.142 35.8282C339.505 35.8282 348.593 35.8282 348.712 35.8282C349.061 35.8282 349.339 35.5312 349.339 35.1683C349.339 34.8053 349.053 34.5165 348.712 34.5165C348.64 34.5165 342.214 34.4918 338.6 34.5C337.742 34.5 337.051 33.7823 337.051 32.8996V28.7666C337.051 28.4036 336.765 28.1149 336.423 28.1149C336.074 28.1149 335.796 28.4119 335.796 28.7666V32.9079C335.796 33.7906 335.104 34.5083 334.255 34.5083C332.213 34.5083 332.682 34.5083 330.902 34.5083C330.052 34.5083 329.361 33.7906 329.361 32.8996V28.7583C329.353 28.4201 329.067 28.1314 328.718 28.1314Z" fill="#474764"></path><path d="M332.555 11.6735V6.82277C332.555 6.04731 332.833 5.2966 333.357 4.75212C333.365 4.74388 333.365 4.74388 333.373 4.73563C333.929 4.14991 334.668 3.80342 335.454 3.80342L349.8 3.77867C350.221 3.77867 350.555 3.42394 350.555 2.99496C350.555 2.55774 350.213 2.21125 349.8 2.21125L335.414 2.22775C334.612 2.22775 333.857 1.90602 333.254 1.3533C332.872 1.00681 332.372 0.784076 331.824 0.775826C331.228 0.759327 330.68 0.998565 330.275 1.3863C329.695 1.93902 328.932 2.22775 328.154 2.22775L313.768 2.13701C313.347 2.13701 313.014 2.49174 313.014 2.92072C313.014 3.35795 313.355 3.70443 313.768 3.70443L328.106 3.80342C328.893 3.80342 329.639 4.14991 330.195 4.73563C330.203 4.74388 330.203 4.74388 330.211 4.75212C330.736 5.2966 331.014 6.04731 331.014 6.82277V11.6735H332.555Z" fill="#474764"></path><path d="M366.95 11.8055L364.758 15.0559C364.599 15.2951 364.337 15.4353 364.059 15.4353L348.545 15.4848C347.345 15.4848 346.289 14.7919 345.661 13.7359C343.39 9.91639 337.885 8.01074 331.784 8.01074C323.777 8.01074 316.827 15.8561 316.827 22.1175C316.827 28.3541 317.772 29.1956 332.277 29.1956C341.173 29.1956 344.804 28.9811 346.114 24.6418C346.559 23.1734 347.822 22.134 349.3 22.134L363.185 22.0845C363.463 22.0845 363.725 22.2247 363.884 22.464L365.171 24.3696C365.33 24.6088 365.592 24.7491 365.87 24.7491H367.196C367.887 24.7491 368.285 23.9489 367.895 23.3632L365.584 19.9313C365.377 19.6261 365.377 19.2219 365.584 18.9166L369.691 12.8285C370.088 12.2428 369.683 11.4426 368.991 11.4426H367.665C367.371 11.4261 367.109 11.5663 366.95 11.8055Z" fill="#595CEC"></path><path d="M329.917 10.832H323.507C319.527 13.6781 316.827 18.2071 316.827 22.1009C316.827 23.8251 316.898 25.145 317.311 26.1349H325.795C326.939 26.1349 327.979 25.442 328.464 24.3695L332.594 15.1795C333.492 13.1584 332.07 10.832 329.917 10.832Z" fill="#474764"></path><path d="M327.916 13.0842H323.316C320.465 15.0971 318.526 18.2897 318.526 21.045C318.526 22.266 318.582 23.1899 318.876 23.8994H324.961C325.779 23.8994 326.526 23.4127 326.875 22.6537L329.838 16.1613C330.489 14.7259 329.465 13.0842 327.916 13.0842Z" fill="#7779F8"></path><path d="M338.179 12.383L332.737 24.5016C332.372 25.3183 332.944 26.2505 333.81 26.2505C334.27 26.2505 334.684 25.9701 334.882 25.5411L340.323 13.4225C340.689 12.6058 340.117 11.6736 339.251 11.6736C338.79 11.6736 338.369 11.9458 338.179 12.383Z" fill="#474764"></path><path d="M337.877 13.9834L333.778 23.0579C333.5 23.6684 333.834 24.4026 334.398 24.4438C334.699 24.4603 334.985 24.2706 335.128 23.9406L339.227 14.8661C339.505 14.2556 339.172 13.5214 338.608 13.4802C338.306 13.4637 338.02 13.6534 337.877 13.9834Z" fill="#7779F8"></path><path d="M330.195 2.95369C330.195 3.8694 330.91 4.60361 331.784 4.60361C332.658 4.60361 333.373 3.86115 333.373 2.95369C333.373 2.03799 332.658 1.29553 331.784 1.29553C330.91 1.29553 330.195 2.04624 330.195 2.95369Z" fill="#7779F8"></path><path d="M360.524 20.6078C361.401 20.6078 362.112 19.8691 362.112 18.9579C362.112 18.0466 361.401 17.3079 360.524 17.3079C359.646 17.3079 358.935 18.0466 358.935 18.9579C358.935 19.8691 359.646 20.6078 360.524 20.6078Z" fill="#474764"></path><path d="M359.396 18.9578C359.396 19.6013 359.896 20.1293 360.524 20.1293C361.143 20.1293 361.652 19.6095 361.652 18.9578C361.652 18.3144 361.151 17.7864 360.524 17.7864C359.904 17.7864 359.396 18.3144 359.396 18.9578Z" fill="#7779F8"></path><path d="M355.543 20.6078C356.421 20.6078 357.132 19.8691 357.132 18.9579C357.132 18.0466 356.421 17.3079 355.543 17.3079C354.666 17.3079 353.954 18.0466 353.954 18.9579C353.954 19.8691 354.666 20.6078 355.543 20.6078Z" fill="#474764"></path><path d="M350.555 20.6078C351.432 20.6078 352.143 19.8691 352.143 18.9579C352.143 18.0466 351.432 17.3079 350.555 17.3079C349.677 17.3079 348.966 18.0466 348.966 18.9579C348.966 19.8691 349.677 20.6078 350.555 20.6078Z" fill="#474764"></path><path d="M354.415 18.9578C354.415 19.6013 354.915 20.1293 355.543 20.1293C356.171 20.1293 356.671 19.6095 356.671 18.9578C356.671 18.3144 356.171 17.7864 355.543 17.7864C354.915 17.7864 354.415 18.3144 354.415 18.9578Z" fill="#7779F8"></path><path d="M349.435 18.9578C349.435 19.6013 349.935 20.1293 350.563 20.1293C351.19 20.1293 351.69 19.6095 351.69 18.9578C351.69 18.3144 351.19 17.7864 350.563 17.7864C349.935 17.7864 349.435 18.3144 349.435 18.9578Z" fill="#7779F8"></path></svg> 