<?xml version="1.0" ?><!DOCTYPE svg  PUBLIC '-//W3C//DTD SVG 1.1//EN'  'http://www.w3.org/Graphics/SVG/1.1/DTD/svg11.dtd'><svg height="6.82666in" style="shape-rendering:geometricPrecision; text-rendering:geometricPrecision; image-rendering:optimizeQuality; fill-rule:evenodd; clip-rule:evenodd" viewBox="0 0 6.82666 6.82666" width="6.82666in" xml:space="preserve" xmlns="http://www.w3.org/2000/svg" xmlns:xlink="http://www.w3.org/1999/xlink"><defs><style type="text/css">
   <![CDATA[
    .fil3 {fill:none}
    .fil2 {fill:#002F86}
    .fil0 {fill:#009CDE}
    .fil1 {fill:#FFFFFE}
   ]]>
  </style></defs><g id="Layer_x0020_1"><path class="fil0" d="M1.25706 1.78925l4.31254 0c0.222059,0 0.403732,0.181669 0.403732,0.403728l0 2.44071c0,0.222059 -0.181673,0.403728 -0.403732,0.403728l-4.31254 0c-0.222051,0 -0.403724,-0.181669 -0.403724,-0.403728l0 -2.44071c0,-0.222059 0.181673,-0.403728 0.403724,-0.403728z"/><path class="fil1" d="M1.25706 1.86924c-0.177898,0 -0.323728,0.145835 -0.323728,0.323732l0 2.44071c0,0.177898 0.145831,0.323732 0.323728,0.323732l4.31254 0c0.177902,0 0.323736,-0.145827 0.323736,-0.323732l0 -2.44071c0,-0.177906 -0.145835,-0.323732 -0.323736,-0.323732l-4.31254 0z"/><g id="_398953528"><polygon class="fil2" id="_398953744" points="0.92587,3.68588 0.92587,4.35254 3.25594,4.35254 3.64084,3.68588 "/><g><path class="fil2" d="M2.08854 2.53553c-0.0429685,-0.041 -0.107429,-0.0614094 -0.193551,-0.0614094l-0.395335 0 0 0.769185 0.238488 0 0 -0.284681 0.13035 0c0.0959685,0 0.167409,-0.0218465 0.214142,-0.0657126 0.0467283,-0.043689 0.070185,-0.104563 0.070185,-0.182272 0,-0.0757362 -0.0214882,-0.134106 -0.0642795,-0.17511zm-0.282358 0.095437c0.0447638,0 0.0752008,0.00841339 0.091315,0.0252441 0.0162953,0.0168307 0.0243543,0.0372402 0.0243543,0.0614134 0,0.0248858 -0.00931102,0.0452992 -0.0279331,0.0612362 -0.018622,0.0159331 -0.0510315,0.0239882 -0.0972244,0.0239882l-0.0585512 0 0 -0.171882 0.0680394 0z" id="_398953720"/><path class="fil2" d="M2.52326 2.67286c-0.0399291,0 -0.0769882,0.00304724 -0.111185,0.00895669 -0.0342008,0.00590551 -0.0610591,0.0143189 -0.0805748,0.0252441 -0.0273937,0.0150394 -0.0481614,0.0327638 -0.0626654,0.0533543 -0.0145,0.0204094 -0.0256024,0.0485236 -0.0333031,0.0843307l0.204118 0.0214843c0.00840945,-0.0243465 0.0193346,-0.0408228 0.0329409,-0.0497717 0.0175472,-0.0112795 0.043689,-0.0168307 0.0786024,-0.0168307 0.0272165,0 0.0461969,0.00519291 0.056937,0.0157559 0.0109213,0.0105669 0.0162913,0.0288268 0.0162913,0.0551457 -0.0264961,0.010563 -0.0517402,0.0189803 -0.0755591,0.0254252 -0.023811,0.00662598 -0.0757362,0.0179016 -0.155768,0.0340197 -0.0667835,0.013248 -0.112622,0.0336575 -0.137508,0.0610551 -0.0248898,0.0273937 -0.0372441,0.0623071 -0.0372441,0.10474 0,0.0451181 0.017189,0.0832598 0.051748,0.114055 0.034378,0.0309724 0.0848661,0.046374 0.151295,0.046374 0.0499528,0 0.0938189,-0.00769685 0.131594,-0.0230984 0.027752,-0.0114606 0.0555079,-0.0306181 0.083437,-0.0574724 0.00250787,0.015937 0.00501575,0.0275709 0.00734252,0.0350945 0.00250787,0.00751575 0.00770079,0.0182598 0.0157559,0.0325827l0.199996 0c-0.0111024,-0.0230945 -0.0184409,-0.0420748 -0.0216654,-0.056937 -0.00340157,-0.0148622 -0.00501575,-0.0354488 -0.00501575,-0.0617717l0 -0.246366c0,-0.0263189 -0.00518898,-0.0538937 -0.0157559,-0.0827205 -0.0103819,-0.0288268 -0.0247087,-0.0512047 -0.0429685,-0.0669646 -0.0257835,-0.0227402 -0.0581929,-0.0377756 -0.0968661,-0.0449409 -0.0388504,-0.00716142 -0.0900591,-0.0107441 -0.15398,-0.0107441zm0.00913386 0.333209c0.0320472,-0.00823622 0.0626654,-0.0175472 0.0920276,-0.0281102l0 0.034378c0,0.0268543 -0.00429528,0.0487008 -0.0128898,0.0655276 -0.00859449,0.0168346 -0.0230945,0.0309764 -0.0435079,0.0426142 -0.0205906,0.0116417 -0.0427913,0.0175512 -0.0666063,0.0175512 -0.0227402,0 -0.0399291,-0.00537402 -0.0517441,-0.0161181 -0.0116378,-0.0107402 -0.0175472,-0.0247047 -0.0175472,-0.0417165 0,-0.0148583 0.00590945,-0.0281102 0.0179055,-0.039748 0.0114567,-0.0112795 0.0390315,-0.0227402 0.0823622,-0.034378z" id="_398953360"/><path class="fil2" d="M3.34544 2.68575l-0.105996 0.371165 -0.114768 -0.371165 -0.225244 0 0.233657 0.557732c-0.0109213,0.0293622 -0.0239921,0.0497756 -0.0395669,0.0610512 -0.0155787,0.0114606 -0.0359921,0.0171929 -0.0612362,0.0171929 -0.0377795,0 -0.0719803,-0.00483858 -0.102772,-0.0145039l0.0168307 0.14915c0.0642756,0.00823228 0.11172,0.0125315 0.14252,0.0125315 0.0759134,0 0.132315,-0.0166535 0.169378,-0.0501339 0.0261417,-0.0236378 0.0519213,-0.0692913 0.0769882,-0.136972l0.220587 -0.596047 -0.210378 0z" id="_398953264"/></g><path class="fil0" d="M3.9363 2.63096c0.0447638,0 0.0752008,0.00841339 0.091315,0.0252441 0.0162913,0.0168307 0.0243504,0.0372402 0.0243504,0.0614134 0,0.0248858 -0.00931102,0.0452992 -0.0279291,0.0612362 -0.018622,0.0159331 -0.0510315,0.0239882 -0.0972244,0.0239882l-0.0585512 0 0 -0.171882 0.0680394 0zm-0.306528 -0.156846l0 0.769185 0.238488 0 0 -0.284681 0.13035 0c0.0959685,0 0.167409,-0.0218465 0.214142,-0.0657126 0.0467244,-0.043689 0.070185,-0.104563 0.070185,-0.182272 0,-0.0757362 -0.0214882,-0.134106 -0.0642835,-0.17511 -0.0429685,-0.041 -0.107425,-0.0614094 -0.193547,-0.0614094l-0.395335 0z" id="_398953216"/><path class="fil0" d="M4.75454 2.87053c-0.0264961,0.010563 -0.0517441,0.0189803 -0.0755591,0.0254252 -0.023811,0.00662598 -0.0757362,0.0179016 -0.155768,0.0340197 -0.0667835,0.013248 -0.112622,0.0336575 -0.137512,0.0610551 -0.0248858,0.0273937 -0.0372402,0.0623071 -0.0372402,0.10474 0,0.0451181 0.017189,0.0832598 0.051748,0.114055 0.034374,0.0309724 0.0848661,0.046374 0.151291,0.046374 0.0499567,0 0.0938228,-0.00769685 0.131598,-0.0230984 0.027752,-0.0114606 0.0555079,-0.0306181 0.083437,-0.0574724 0.00250787,0.015937 0.00501575,0.0275709 0.00734252,0.0350945 0.00250394,0.00751575 0.00770079,0.0182598 0.0157559,0.0325827l0.199996 0c-0.0111024,-0.0230945 -0.0184409,-0.0420748 -0.0216654,-0.056937 -0.00340157,-0.0148622 -0.00501575,-0.0354488 -0.00501575,-0.0617717l0 -0.246366c0,-0.0263189 -0.00518898,-0.0538937 -0.0157559,-0.0827205 -0.0103819,-0.0288268 -0.0247087,-0.0512047 -0.0429685,-0.0669646 -0.0257835,-0.0227402 -0.0581929,-0.0377756 -0.0968661,-0.0449409 -0.0388504,-0.00716142 -0.090063,-0.0107441 -0.15398,-0.0107441 -0.0399291,0 -0.0769882,0.00304724 -0.111185,0.00895669 -0.0342008,0.00590551 -0.0610591,0.0143189 -0.0805748,0.0252441 -0.0273937,0.0150394 -0.0481614,0.0327638 -0.0626654,0.0533543 -0.0145039,0.0204094 -0.0256063,0.0485236 -0.0333031,0.0843307l0.204114 0.0214843c0.00841339,-0.0243465 0.0193386,-0.0408228 0.0329449,-0.0497717 0.0175472,-0.0112795 0.043689,-0.0168307 0.0786024,-0.0168307 0.0272165,0 0.0461929,0.00519291 0.056937,0.0157559 0.0109173,0.0105669 0.0162913,0.0288268 0.0162913,0.0551457zm-0.0920276 0.135539c0.0320472,-0.00823622 0.0626654,-0.0175472 0.0920276,-0.0281102l0 0.034378c0,0.0268543 -0.00429528,0.0487008 -0.0128898,0.0655276 -0.00859449,0.0168346 -0.0230984,0.0309764 -0.0435118,0.0426142 -0.0205866,0.0116417 -0.0427874,0.0175512 -0.0666024,0.0175512 -0.0227402,0 -0.0399291,-0.00537402 -0.0517441,-0.0161181 -0.0116378,-0.0107402 -0.0175472,-0.0247047 -0.0175472,-0.0417165 0,-0.0148583 0.00590945,-0.0281102 0.0179055,-0.039748 0.0114567,-0.0112795 0.0390315,-0.0227402 0.0823622,-0.034378z" id="_398953000"/><polygon class="fil0" id="_398952976" points="5.09831,2.47412 5.09831,3.2433 5.3121,3.2433 5.3121,2.47412 "/><polygon class="fil0" id="_398953480" points="3.75631,3.68588 5.9008,3.68588 5.9008,4.35254 3.37142,4.35254 "/></g></g><rect class="fil3" height="6.82666" width="6.82666"/></svg>